<svg xmlns="http://www.w3.org/2000/svg" id="Capa_2" viewBox="0 0 474.41 835.6"><defs><style>.cls-3{fill:#d9f1ff}</style></defs><g id="Layer_1"><path fill="#9fdbfe" d="m274.95 118.89 13.12 54.43L472.4 2.01 274.95 118.89z"/><path d="M288.07 175.33c-.19 0-.39-.03-.58-.09-.68-.21-1.21-.76-1.37-1.45L273 119.35c-.21-.86.17-1.75.93-2.2L471.38.28a2 2 0 0 1 2.63.53c.61.82.51 1.97-.24 2.67L289.44 174.8c-.38.35-.87.54-1.37.54zm-10.82-55.47 11.96 49.66L457.36 13.24 277.25 119.85z"/><path fill="#fff" d="m302.07 129.31-14 44.01L472.35 2.52 302.07 129.31z"/><path d="M288.07 175.33c-.37 0-.75-.1-1.08-.31a2.013 2.013 0 0 1-.84-2.3l14-44.01c.13-.4.38-.75.71-1L471.15.91c.86-.64 2.06-.49 2.74.33.68.82.6 2.03-.18 2.76L289.43 174.8c-.38.35-.87.54-1.37.54zm15.72-44.79-11.5 36.13 151.3-140.23-139.8 104.1z"/><path d="M472.4 2.01 195.09 86.85l80.34 31.55L472.4 2.01z" class="cls-3"/><path d="M275.43 120.41c-.25 0-.5-.05-.73-.14l-80.34-31.55c-.8-.31-1.31-1.09-1.27-1.95.03-.85.6-1.59 1.42-1.84L471.81.09c.97-.3 2.01.18 2.42 1.11.41.93.06 2.02-.82 2.54L276.44 120.13c-.31.19-.67.28-1.02.28zm-74.25-33.32 74.07 29.09L456.85 8.87 201.19 87.09z"/><path d="m302.48 129.54 90.92 46.37 79-173.9-169.92 127.53z" class="cls-3"/><path d="M393.4 177.92c-.31 0-.63-.07-.91-.22l-90.93-46.37c-.62-.31-1.03-.93-1.09-1.62-.06-.69.24-1.36.8-1.78L471.19.4c.73-.55 1.75-.53 2.46.04.72.57.95 1.56.57 2.4l-78.99 173.91a2.005 2.005 0 0 1-1.83 1.17zm-87.15-48.71 86.19 43.96L467.32 8.33 306.26 129.22zM57.03 835.6c-.52 0-1.03-.27-1.31-.76-.83-1.45-1.59-2.97-2.25-4.5a1.505 1.505 0 1 1 2.76-1.2 44.45 44.45 0 0 0 2.1 4.2 1.504 1.504 0 0 1-1.31 2.25zm-5.43-15.91c-.74 0-1.38-.54-1.49-1.29-.36-2.49-.55-5.08-.55-7.69 0-1.53.06-3.1.19-4.66.06-.83.79-1.44 1.62-1.38.83.07 1.45.79 1.38 1.62-.12 1.48-.18 2.97-.18 4.42 0 2.47.17 4.92.51 7.26.12.82-.45 1.59-1.27 1.71-.07.01-.15.02-.22.02zm1.7-23.87a1.498 1.498 0 0 1-1.45-1.89c1-3.83 2.35-7.73 3.98-11.59a1.502 1.502 0 1 1 2.77 1.17c-1.58 3.73-2.88 7.49-3.84 11.18-.18.68-.79 1.12-1.46 1.12zm9.31-22.15c-.26 0-.52-.07-.75-.2-.72-.42-.96-1.34-.55-2.06 1.98-3.42 4.19-6.76 6.55-9.94l.18-.25c.5-.67 1.44-.8 2.11-.31.67.5.8 1.44.31 2.11l-.18.24c-2.3 3.09-4.44 6.34-6.37 9.66-.28.48-.78.75-1.3.75zm14.19-19.43c-.35 0-.7-.12-.98-.36-.63-.54-.7-1.49-.16-2.12 2.32-2.7 4.88-5.57 8.07-9.02.56-.61 1.52-.65 2.13-.08.61.56.65 1.52.08 2.13-3.16 3.42-5.7 6.26-8 8.94-.3.35-.72.53-1.14.53zm16.26-17.78c-.37 0-.74-.13-1.03-.41-.61-.57-.64-1.52-.07-2.13 2.59-2.77 5.37-5.76 8.13-8.84.55-.62 1.51-.67 2.13-.12.62.55.67 1.51.12 2.13-2.78 3.11-5.57 6.11-8.18 8.89-.3.32-.7.48-1.1.48zm15.95-18.05c-.33 0-.66-.11-.94-.33-.65-.52-.75-1.47-.23-2.12 2.65-3.32 4.97-6.45 7.07-9.59a1.5 1.5 0 0 1 2.09-.41c.69.46.88 1.4.41 2.09-2.15 3.21-4.51 6.42-7.22 9.8-.3.37-.73.56-1.18.56zm13.2-20.1a1.495 1.495 0 0 1-1.35-2.16c1.73-3.54 3.2-7.23 4.37-10.97.25-.79 1.1-1.23 1.89-.99.79.25 1.23 1.09.99 1.89a82.142 82.142 0 0 1-4.54 11.39c-.26.53-.8.85-1.35.85zm7.16-22.91c-.07 0-.15 0-.22-.02-.82-.12-1.39-.88-1.27-1.71.45-3.13.69-6.24.69-9.24 0-.83-.02-1.66-.05-2.49-.04-.83.61-1.53 1.44-1.57.81-.04 1.53.61 1.57 1.44.04.87.06 1.74.06 2.62 0 3.15-.24 6.4-.72 9.67-.11.75-.75 1.29-1.49 1.29zm-80.32-23.44h-.03c-4.18-.09-8.28-.45-12.19-1.06a1.504 1.504 0 0 1 .47-2.97c3.78.59 7.74.94 11.79 1.03a1.505 1.505 0 0 1-.03 3.01zm12.03-.44c-.77 0-1.43-.59-1.5-1.37-.07-.83.54-1.56 1.36-1.64 3.8-.34 7.77-.89 11.8-1.63.81-.15 1.6.39 1.75 1.21a1.5 1.5 0 0 1-1.21 1.75c-4.12.76-8.18 1.32-12.07 1.67h-.14zm67.07 0c-.66 0-1.26-.43-1.45-1.1-1.09-3.83-2.65-7.4-4.66-10.6-.44-.7-.23-1.63.48-2.08.7-.44 1.63-.23 2.08.48 2.16 3.44 3.84 7.27 5.01 11.38.23.8-.24 1.63-1.04 1.86-.14.04-.28.06-.41.06zm-102.81-3.37c-.15 0-.31-.02-.46-.07a73.837 73.837 0 0 1-11.34-4.72 1.496 1.496 0 0 1-.64-2.03c.38-.74 1.29-1.03 2.03-.64 3.46 1.79 7.12 3.32 10.87 4.53.79.25 1.23 1.1.97 1.89-.2.64-.8 1.05-1.43 1.05zm59.43-.9a1.509 1.509 0 0 1-.38-2.97c3.71-.97 7.57-2.1 11.47-3.38.79-.26 1.64.17 1.9.97.26.79-.17 1.64-.97 1.9-3.96 1.29-7.88 2.44-11.65 3.43-.13.03-.26.05-.38.05zm22.92-7.42c-.61 0-1.18-.37-1.41-.97-.3-.78.1-1.65.87-1.94 3.58-1.36 7.32-2.87 11.12-4.48.76-.33 1.65.03 1.97.8.33.77-.03 1.65-.8 1.97-3.84 1.63-7.62 3.15-11.23 4.53-.18.07-.36.1-.53.1zM4.37 636.71c-.42 0-.83-.17-1.13-.51-1.24-1.4-2.13-2.9-2.66-4.48-.4-1.2-.6-2.42-.6-3.6 0-1.61.37-3.2 1.1-4.73.36-.75 1.26-1.06 2.01-.7.75.36 1.07 1.26.7 2.01-.53 1.11-.81 2.26-.81 3.42 0 .87.15 1.76.45 2.66.4 1.2 1.07 2.32 2.05 3.42.55.62.5 1.57-.13 2.13-.29.26-.64.38-1 .38zm111.09-5.25c-.35 0-.69-.12-.98-.36-2.81-2.4-6-4.48-9.76-6.36a1.501 1.501 0 0 1-.67-2.02c.37-.74 1.28-1.05 2.02-.67 3.98 1.99 7.38 4.2 10.37 6.76a1.505 1.505 0 0 1-.98 2.65zm14.41-1.02c-.57 0-1.12-.33-1.37-.88-.35-.76-.02-1.65.74-2l.82-.38c3.37-1.56 6.72-3.14 10.08-4.73.75-.35 1.65-.04 2.01.71.36.75.04 1.65-.71 2.01-3.36 1.6-6.73 3.18-10.1 4.74l-.82.38c-.2.09-.42.14-.63.14zm-35.65-10.01c-.15 0-.31-.02-.46-.07-1.81-.58-3.7-1.13-5.79-1.69-1.88-.51-3.81-.99-5.72-1.43-.81-.19-1.32-1-1.13-1.81.19-.81 1-1.31 1.81-1.13 1.94.45 3.9.94 5.82 1.45 2.13.57 4.07 1.14 5.93 1.74.79.25 1.23 1.1.97 1.89-.21.64-.8 1.05-1.43 1.05zm57.42-.32a1.509 1.509 0 0 1-.66-2.86c3.61-1.76 7.2-3.53 10.79-5.33a1.51 1.51 0 0 1 2.02.67c.37.74.07 1.65-.67 2.02-3.6 1.8-7.2 3.58-10.82 5.34-.21.1-.44.15-.66.15zm-140.37-2.45c-.55 0-1.08-.3-1.35-.83a1.51 1.51 0 0 1 .67-2.02c3.64-1.82 7.89-3.11 11.97-3.63.81-.1 1.58.48 1.68 1.3.11.83-.48 1.58-1.3 1.68-3.75.48-7.65 1.66-11 3.34-.22.11-.45.16-.67.16zm59.51-2.68c-.08 0-.16 0-.24-.02-3.91-.62-7.9-1.11-11.85-1.45-.83-.07-1.44-.8-1.37-1.63.07-.83.81-1.44 1.63-1.37 4.02.35 8.08.85 12.06 1.48a1.504 1.504 0 0 1-.24 2.99zm-36.03-1.87c-.79 0-1.46-.62-1.5-1.43a1.5 1.5 0 0 1 1.42-1.58c4.02-.21 8.1-.29 12.15-.22.83.01 1.49.7 1.48 1.53-.01.83-.7 1.54-1.53 1.48-3.98-.07-7.99 0-11.94.22h-.08zm138.44-3.78a1.508 1.508 0 0 1-.69-2.85c3.57-1.83 7.13-3.68 10.68-5.55a1.5 1.5 0 0 1 2.03.63c.39.74.1 1.65-.63 2.03-3.56 1.87-7.13 3.72-10.7 5.56-.22.11-.45.17-.69.17zm21.32-11.21c-.54 0-1.05-.29-1.33-.79a1.51 1.51 0 0 1 .61-2.04c3.53-1.9 7.05-3.82 10.56-5.76.73-.4 1.64-.14 2.05.59.4.73.14 1.64-.59 2.05-3.52 1.94-7.05 3.87-10.59 5.78-.23.12-.47.18-.71.18zm21.09-11.65a1.508 1.508 0 0 1-.74-2.82c3.49-1.98 6.97-3.97 10.44-5.98a1.507 1.507 0 1 1 1.51 2.61c-3.48 2.02-6.97 4.01-10.47 5.99-.23.13-.49.2-.74.2zm20.85-12.07c-.51 0-1.02-.26-1.3-.74a1.5 1.5 0 0 1 .53-2.06c3.45-2.04 6.89-4.11 10.32-6.19.71-.43 1.64-.2 2.07.51.43.71.2 1.64-.51 2.07-3.44 2.09-6.89 4.15-10.35 6.2-.24.14-.51.21-.77.21zm20.6-12.5c-.5 0-1-.25-1.28-.71-.44-.71-.22-1.64.49-2.07 3.41-2.12 6.81-4.25 10.19-6.4.7-.44 1.63-.24 2.08.46.45.7.24 1.63-.46 2.08-3.39 2.15-6.8 4.29-10.22 6.41-.25.15-.52.23-.79.23zm20.34-12.91c-.49 0-.98-.24-1.26-.69-.45-.7-.25-1.63.44-2.08 3.36-2.18 6.72-4.38 10.06-6.6.7-.46 1.63-.27 2.09.42.46.69.27 1.63-.42 2.09-3.35 2.22-6.71 4.43-10.08 6.62-.25.16-.54.24-.82.24zm20.07-13.32c-.48 0-.96-.23-1.25-.66a1.5 1.5 0 0 1 .4-2.09c3.32-2.25 6.63-4.52 9.92-6.81.68-.47 1.62-.3 2.1.38.47.68.3 1.62-.38 2.1-3.3 2.29-6.62 4.57-9.95 6.82-.26.18-.55.26-.84.26zm19.8-13.73c-.47 0-.94-.22-1.23-.64-.48-.68-.32-1.62.36-2.1 3.27-2.32 6.53-4.65 9.78-7.01.67-.49 1.61-.34 2.1.34.49.67.34 1.62-.34 2.1-3.26 2.36-6.53 4.7-9.81 7.03-.26.19-.57.28-.87.28zm19.52-14.13c-.46 0-.92-.21-1.21-.61-.5-.67-.35-1.61.31-2.11 3.69-2.73 6.74-5.03 9.6-7.23.66-.51 1.6-.38 2.11.27.51.66.38 1.6-.27 2.11-2.88 2.22-5.95 4.53-9.65 7.26-.27.2-.58.3-.89.3zm19.06-14.74c-.43 0-.87-.19-1.16-.55-.53-.64-.44-1.59.2-2.12 3.27-2.69 6.24-5.25 9.07-7.82.62-.56 1.57-.51 2.13.11.56.62.51 1.57-.11 2.13-2.87 2.6-5.87 5.19-9.18 7.91-.28.23-.62.34-.96.34zm17.81-16.21c-.38 0-.76-.14-1.05-.43-.6-.58-.61-1.53-.03-2.13 2.85-2.93 5.55-5.9 8-8.85a1.505 1.505 0 0 1 2.31 1.93c-2.5 3-5.25 6.04-8.16 9.02-.3.3-.69.45-1.08.45zm15.37-18.51c-.29 0-.59-.09-.85-.26a1.5 1.5 0 0 1-.39-2.09c2.19-3.2 4.2-6.63 5.96-10.21.37-.75 1.27-1.05 2.02-.69.75.37 1.05 1.27.69 2.02-1.82 3.71-3.9 7.27-6.18 10.58-.29.43-.76.65-1.24.65zm10.62-21.54c-.16 0-.31-.02-.47-.08a1.505 1.505 0 0 1-.96-1.9 78.2 78.2 0 0 0 2.83-11.46 1.504 1.504 0 1 1 2.97.49c-.65 3.94-1.64 7.95-2.94 11.91-.21.63-.8 1.04-1.43 1.04zm3.8-23.68a1.5 1.5 0 0 1-1.5-1.48c-.08-4.06-.58-7.95-1.5-11.58-.2-.81.28-1.63 1.09-1.83.8-.2 1.63.28 1.83 1.09.98 3.85 1.51 7.97 1.59 12.26a1.5 1.5 0 0 1-1.48 1.53h-.03zm-6.07-23.04c-.52 0-1.02-.26-1.3-.74a37.35 37.35 0 0 0-6.93-8.56l-.39-.35c-.62-.55-.67-1.51-.12-2.13.55-.62 1.51-.67 2.13-.12l.42.38c2.94 2.7 5.46 5.82 7.49 9.25a1.51 1.51 0 0 1-1.29 2.27zm-118.8-8.95c-1.91 0-3.78-.07-5.58-.2-.83-.06-1.45-.78-1.39-1.61.06-.83.78-1.45 1.61-1.39 1.72.13 3.52.19 5.35.19h.02c2.06 0 4.22-.08 6.44-.24.84-.05 1.55.56 1.61 1.39.06.83-.56 1.55-1.39 1.61-2.29.17-4.53.25-6.66.25h-.02zm18.51-1.74a1.507 1.507 0 0 1-.25-2.99c3.52-.6 7.36-1.37 11.73-2.36.81-.18 1.62.32 1.8 1.14.18.81-.33 1.62-1.14 1.8-4.43 1-8.32 1.79-11.89 2.39-.09.01-.17.02-.25.02zm-35.82-.54c-.14 0-.28-.02-.42-.06a48.415 48.415 0 0 1-11.37-4.95 1.52 1.52 0 0 1-.52-2.07 1.52 1.52 0 0 1 2.07-.52c3.27 1.97 6.86 3.53 10.66 4.64.8.23 1.26 1.07 1.02 1.87-.19.66-.79 1.08-1.45 1.08zm118.47-4.64c-.21 0-.43-.05-.64-.14-3.36-1.57-7.09-2.77-11.09-3.56-.82-.16-1.35-.95-1.19-1.77.16-.82.95-1.34 1.77-1.19 4.24.84 8.21 2.11 11.79 3.79.75.35 1.08 1.25.72 2-.26.55-.8.87-1.36.87zm-59.12 0c-.68 0-1.29-.46-1.46-1.15-.2-.81.29-1.62 1.1-1.82 4.26-1.05 8.14-1.9 11.85-2.6.81-.15 1.6.38 1.76 1.2.15.82-.38 1.6-1.2 1.76-3.65.69-7.48 1.53-11.69 2.56-.12.03-.24.04-.36.04zm23.68-4.35c-.76 0-1.42-.58-1.5-1.35-.09-.83.52-1.57 1.34-1.65 4.29-.44 8.35-.63 12.21-.56.83.02 1.49.7 1.48 1.53-.02.83-.7 1.54-1.53 1.48-3.75-.07-7.68.11-11.85.54h-.16zm-103.38-3.35c-.4 0-.8-.16-1.1-.48-2.76-2.94-5.2-6.33-7.24-10.05-.4-.73-.13-1.64.59-2.04.73-.4 1.64-.13 2.04.59 1.93 3.5 4.21 6.68 6.8 9.44.57.61.54 1.56-.07 2.13-.29.27-.66.41-1.03.41zm-11.65-20.85c-.65 0-1.24-.42-1.44-1.07-1.16-3.81-2-7.86-2.51-12.04-.1-.83.49-1.58 1.31-1.68.82-.1 1.58.49 1.68 1.31.49 4 1.3 7.88 2.4 11.53.24.8-.21 1.64-1 1.88-.15.04-.29.07-.44.07zm-3-23.81h-.04a1.5 1.5 0 0 1-1.46-1.55c.12-4.07.53-8.17 1.22-12.19a1.507 1.507 0 0 1 2.97.51c-.67 3.88-1.07 7.84-1.18 11.76-.02.82-.69 1.46-1.5 1.46zm3.97-23.7c-.13 0-.27-.02-.4-.05-.8-.22-1.27-1.05-1.05-1.85 1.04-3.8 2.19-7.71 3.41-11.61a1.51 1.51 0 0 1 1.89-.99c.79.25 1.24 1.09.99 1.89-1.21 3.88-2.34 7.75-3.38 11.52-.18.67-.79 1.11-1.45 1.11zm7.15-23.02c-.16 0-.33-.03-.49-.08-.79-.27-1.2-1.13-.93-1.92 1.32-3.81 2.71-7.64 4.14-11.37.3-.78 1.17-1.16 1.94-.87a1.5 1.5 0 0 1 .87 1.94c-1.42 3.7-2.8 7.5-4.11 11.28-.22.62-.8 1.01-1.42 1.01zm8.61-22.51c-.2 0-.39-.04-.58-.12a1.494 1.494 0 0 1-.8-1.97c1.58-3.76 3.23-7.48 4.9-11.07.35-.75 1.24-1.08 2-.73.75.35 1.08 1.25.73 2-1.65 3.56-3.28 7.25-4.85 10.97-.24.58-.8.92-1.39.92zm10.16-21.85c-.23 0-.47-.05-.69-.17a1.508 1.508 0 0 1-.65-2.03c1.88-3.65 3.82-7.24 5.77-10.66.41-.72 1.33-.97 2.05-.56.72.41.97 1.33.56 2.05-1.93 3.38-3.85 6.93-5.71 10.54-.27.52-.79.82-1.34.82zm11.98-20.91a1.503 1.503 0 0 1-1.26-2.32c2.23-3.48 4.53-6.85 6.85-10.02a1.503 1.503 0 0 1 2.43 1.77c-2.28 3.12-4.55 6.45-6.74 9.87-.29.45-.77.69-1.27.69z"/></g></svg>