<?xml version="1.0" encoding="UTF-8"?>
<svg version="1.1" xmlns="http://www.w3.org/2000/svg" width="500" height="500">
<path d="M0 0 C1.25263138 -0.00315216 2.50526276 -0.00630432 3.79585266 -0.009552 C5.16362544 -0.0077599 6.53139789 -0.00570837 7.89916992 -0.00341797 C9.31483476 -0.00409262 10.73049949 -0.00506398 12.14616394 -0.00631714 C15.11942646 -0.00779181 18.09265895 -0.00565046 21.06591797 -0.00097656 C24.83316154 0.00466333 28.60033294 0.00147719 32.36757374 -0.00454903 C35.29768896 -0.00821019 38.22778788 -0.00698998 41.15790367 -0.00442123 C42.5438405 -0.0037642 43.92977892 -0.00453642 45.31571388 -0.00690079 C49.81785989 -0.01288593 54.31593968 0.0389207 58.81713867 0.12939453 C59.49371395 0.13728249 60.17028923 0.14517044 60.86736679 0.15329742 C62.90526149 0.18451957 64.93936399 0.25033781 66.97607422 0.32519531 C68.1700029 0.35880157 69.36393158 0.39240784 70.59403992 0.42703247 C74.6724985 1.3157904 76.18839731 2.95912286 78.81713867 6.12939453 C80.12931762 8.75375243 79.95141843 10.71005491 79.96240234 13.64892578 C79.9687822 14.80352295 79.97516205 15.95812012 79.98173523 17.14770508 C79.98284805 18.3997876 79.98396088 19.65187012 79.98510742 20.94189453 C79.99010002 22.86159058 79.99010002 22.86159058 79.99519348 24.82006836 C80.00118411 27.53028202 80.0030334 30.24046378 80.00244141 32.95068359 C80.00233967 36.42786415 80.0160039 39.90484104 80.03321362 43.38197327 C80.04698628 46.69361708 80.0464217 50.0052224 80.04760742 53.31689453 C80.05479294 54.56897705 80.06197845 55.82105957 80.06938171 57.11108398 C80.06630508 58.26568115 80.06322845 59.42027832 80.06005859 60.60986328 C80.06148361 61.62975342 80.06290863 62.64964355 80.06437683 63.70043945 C79.81713867 66.12939453 79.81713867 66.12939453 77.81713867 68.12939453 C77.0462793 67.63568359 76.27541992 67.14197266 75.48120117 66.63330078 C74.47831055 65.99263672 73.47541992 65.35197266 72.44213867 64.69189453 C71.4444043 64.05380859 70.44666992 63.41572266 69.41870117 62.75830078 C66.95883346 61.16040242 66.95883346 61.16040242 64.81713867 60.12939453 C64.81713867 60.78939453 64.81713867 61.44939453 64.81713867 62.12939453 C63.33213867 62.62439453 63.33213867 62.62439453 61.81713867 63.12939453 C63.54435551 64.40287665 65.27400105 65.6730651 67.00463867 66.94189453 C67.96756836 67.64958984 68.93049805 68.35728516 69.92260742 69.08642578 C72.73530995 71.13865437 72.73530995 71.13865437 75.55541992 72.70361328 C77.81713867 74.12939453 77.81713867 74.12939453 79.81713867 77.12939453 C80.44547711 81.87049368 80.1299095 86.13895357 78.69213867 90.69189453 C76.81713867 93.12939453 76.81713867 93.12939453 74.19604492 94.27783203 C70.21315474 94.10286113 69.71821014 93.50696661 66.97729492 90.78955078 C65.59233691 89.27421248 64.22704876 87.74071502 62.87963867 86.19189453 C62.20223633 85.44359375 61.52483398 84.69529297 60.8269043 83.92431641 C58.16734033 80.97406184 55.55895601 77.98080182 52.94970703 74.98608398 C49.45651818 70.97895252 45.94366634 67.02053606 42.25463867 63.19189453 C41.36647461 62.25474609 40.47831055 61.31759766 39.56323242 60.35205078 C36.52872021 57.895952 34.66264143 57.39479634 30.81713867 57.12939453 C32.01025985 62.76960372 33.36889895 64.65759768 37.81713867 68.12939453 C39.1946558 70.44446133 39.95465823 72.54195322 40.81713867 75.12939453 C40.48713867 75.78939453 40.15713867 76.44939453 39.81713867 77.12939453 C22.18822915 77.95574967 22.18822915 77.95574967 14.89135742 71.39892578 C9.15030044 65.44391637 6.68134684 59.31434705 6.62963867 51.06689453 C6.69151367 49.76751953 6.75338867 48.46814453 6.81713867 47.12939453 C6.15713867 46.79939453 5.49713867 46.46939453 4.81713867 46.12939453 C4.12993725 63.35561628 4.12993725 63.35561628 11.30541992 78.63330078 C17.59884595 84.86167848 25.03073085 87.19331369 33.75463867 87.37939453 C37.54240062 87.34625161 40.665495 87.00647813 44.25463867 85.81689453 C45.43026367 85.59001953 46.60588867 85.36314453 47.81713867 85.12939453 C51.18925025 87.62182483 53.23741893 90.25190063 54.81713867 94.12939453 C53.07100853 95.87552467 50.64932169 95.27506768 48.27514648 95.29052734 C47.09011536 95.30013489 45.90508423 95.30974243 44.68414307 95.31964111 C42.74677277 95.32601593 42.74677277 95.32601593 40.77026367 95.33251953 C39.45177429 95.3382196 38.13328491 95.34391968 36.77484131 95.34979248 C33.97708754 95.36031382 31.17936258 95.36614835 28.3815918 95.36962891 C24.8025834 95.37510171 21.22395777 95.3990983 17.64506912 95.42760086 C14.89120388 95.44626349 12.13742991 95.45143485 9.38350677 95.45296478 C7.42426651 95.45745309 5.46507516 95.47608748 3.50592041 95.49493408 C1.70946075 95.49043243 1.70946075 95.49043243 -0.12329102 95.48583984 C-1.17506531 95.48948547 -2.2268396 95.4931311 -3.31048584 95.49688721 C-6.70891884 95.06209056 -8.47993442 94.22524007 -11.18286133 92.12939453 C-13.88058107 88.59716723 -14.55312369 86.07839078 -14.50756836 81.67504883 C-14.50411407 80.60590744 -14.50065979 79.53676605 -14.49710083 78.43522644 C-14.47847992 77.2862941 -14.45985901 76.13736176 -14.44067383 74.95361328 C-14.43074905 73.15667778 -14.43074905 73.15667778 -14.42062378 71.32344055 C-14.39723385 67.48766369 -14.35361748 63.65246432 -14.30786133 59.81689453 C-14.26116286 54.8000077 -14.22320442 49.78311102 -14.19067383 44.76611328 C-14.18185684 43.56367477 -14.17303986 42.36123627 -14.16395569 41.12236023 C-14.12896172 33.41918373 -14.34523309 25.80371835 -14.97802734 18.12744141 C-15.35560881 12.60098092 -15.30845605 7.99244786 -12.37036133 3.12939453 C-8.62320618 -0.29657589 -4.93624349 0.0035683 0 0 Z M15.81713867 26.12939453 C14.82713867 26.62439453 14.82713867 26.62439453 13.81713867 27.12939453 C14.14713867 28.77939453 14.47713867 30.42939453 14.81713867 32.12939453 C18.82970351 33.38332104 21.46135395 32.73164004 25.43432617 31.61376953 C31.63029983 30.35426013 38.70593988 30.4686247 44.81713867 32.12939453 C45.81713867 33.87939453 45.81713867 33.87939453 46.81713867 36.12939453 C47.62151367 36.87189453 48.42588867 37.61439453 49.25463867 38.37939453 C54.09216381 43.57088492 54.8546844 49.25472114 55.81713867 56.12939453 C56.47713867 56.78939453 57.13713867 57.44939453 57.81713867 58.12939453 C57.32213867 59.11939453 57.32213867 59.11939453 56.81713867 60.12939453 C59.12713867 60.45939453 61.43713867 60.78939453 63.81713867 61.12939453 C64.49536055 48.25376962 64.49536055 48.25376962 60.81713867 36.12939453 C60.15713867 36.12939453 59.49713867 36.12939453 58.81713867 36.12939453 C58.44008789 35.25154297 58.44008789 35.25154297 58.05541992 34.35595703 C55.47757866 29.72072196 50.84199506 26.19003359 46.19213867 23.75439453 C35.66939545 20.98525158 25.40759906 20.66480726 15.81713867 26.12939453 Z " fill="#814ad8" transform="translate(46.182861328125,195.87060546875)"/>
<path d="M0 0 C0.639375 0.33 1.27875 0.66 1.9375 1 C2.2675 0.34 2.5975 -0.32 2.9375 -1 C6.5675 -1 10.1975 -1 13.9375 -1 C13.9375 19.79 13.9375 40.58 13.9375 62 C10.9675 62 7.9975 62 4.9375 62 C2.85578932 59.91828932 3.52015088 55.62922235 3.375 52.75 C3.33181641 51.98558594 3.28863281 51.22117187 3.24414062 50.43359375 C3.03655586 46.61798806 2.88398126 42.82276742 2.9375 39 C1.4525 39.495 1.4525 39.495 -0.0625 40 C-6.00749483 40.57745969 -11.42819392 40.78232241 -16.5 37.33203125 C-22.37603446 32.32271187 -25.53900518 27.5369551 -26.4375 19.75 C-25.80825551 13.45755505 -24.00180534 7.2372721 -19.0625 3 C-12.73721359 -1.2168576 -7.39820326 -2.41573984 0 0 Z M-11.9375 11.375 C-14.68572376 14.76986465 -15.24998765 16.11570627 -14.875 20.375 C-14.47419666 23.65525893 -14.20319271 24.81846102 -12.125 27.5 C-8.610175 30.05623636 -6.42194243 30.42739632 -2.0625 30 C1.27511045 27.84909549 2.67220933 26.79587201 3.9375 23 C4.33852952 18.95481919 4.33852952 18.95481919 3.9375 15 C1.64550597 12.03949126 1.64550597 12.03949126 -1.0625 10 C-1.3925 9.67 -1.7225 9.34 -2.0625 9 C-6.55979777 8.48108103 -8.38089355 8.4369338 -11.9375 11.375 Z " fill="#401e77" transform="translate(170.0625,225)"/>
<path d="M0 0 C8.68965517 3.37931034 8.68965517 3.37931034 10 6 C10.02008491 7.91667466 9.99231083 9.83400394 9.9375 11.75 C9.89954993 16.28774383 10.15265827 19.79216605 12 24 C12.37125 24.94875 12.7425 25.8975 13.125 26.875 C13.41375 27.57625 13.7025 28.2775 14 29 C14.66 29 15.32 29 16 29 C16.93016247 30.3596961 17.79419404 31.76491884 18.625 33.1875 C22.46668977 39.1323046 26.79312853 41.70491729 33.25 44.3125 C40.01709857 45.55313474 46.85089887 45.87055909 53.4375 43.6875 C54.613125 43.460625 55.78875 43.23375 57 43 C60.37211158 45.4924303 62.42028026 48.1225061 64 52 C62.25386986 53.74613014 59.83218302 53.14567315 57.45800781 53.16113281 C56.27297668 53.17074036 55.08794556 53.1803479 53.86700439 53.19024658 C51.92963409 53.1966214 51.92963409 53.1966214 49.953125 53.203125 C48.63463562 53.20882507 47.31614624 53.21452515 45.95770264 53.22039795 C43.15994887 53.23091929 40.36222391 53.23675382 37.56445312 53.24023438 C33.98544473 53.24570717 30.4068191 53.26970377 26.82793045 53.29820633 C24.07406521 53.31686895 21.32029123 53.32204032 18.5663681 53.32357025 C16.60712784 53.32805856 14.64793649 53.34669295 12.68878174 53.36553955 C10.89232208 53.3610379 10.89232208 53.3610379 9.05957031 53.35644531 C8.00779602 53.36009094 6.95602173 53.36373657 5.87237549 53.36749268 C1.573042 52.81743452 -1.06125859 51.13979992 -3.79418945 47.8215332 C-5.36942266 44.13557042 -5.37531222 40.78961232 -5.29296875 36.85546875 C-5.28872391 36.08568192 -5.28447906 35.31589508 -5.28010559 34.52278137 C-5.26338597 32.07732354 -5.2257477 29.63270643 -5.1875 27.1875 C-5.17244441 25.52410049 -5.15875754 23.86068799 -5.14648438 22.19726562 C-5.11350465 18.13118918 -5.06177006 14.06573687 -5 10 C-4.34 10 -3.68 10 -3 10 C-2.87625 8.72125 -2.7525 7.4425 -2.625 6.125 C-2.25 2.25 -2.25 2.25 0 0 Z " fill="#4e1c9e" transform="translate(37,238)"/>
<path d="M0 0 C3.3 0 6.6 0 10 0 C11 1 11 1 11.11352539 4.41821289 C11.11336628 5.93636988 11.10767226 7.45453229 11.09765625 8.97265625 C11.0962413 9.77029892 11.09482635 10.56794159 11.09336853 11.38975525 C11.08775316 13.94737435 11.07519812 16.50490718 11.0625 19.0625 C11.05748698 20.79231645 11.05292373 22.52213426 11.04882812 24.25195312 C11.03777875 28.50133553 11.02050386 32.75065312 11 37 C12.11344105 36.0697044 13.22344681 35.13529643 14.33203125 34.19921875 C14.95053955 33.67932373 15.56904785 33.15942871 16.20629883 32.6237793 C17.88042044 31.10825148 19.27691512 29.57101274 20.6875 27.8125 C22.78813487 25.25767381 24.18097022 23.65370186 27 22 C30.234375 21.70703125 30.234375 21.70703125 33.75 21.8125 C34.92046875 21.83957031 36.0909375 21.86664063 37.296875 21.89453125 C38.18890625 21.92933594 39.0809375 21.96414062 40 22 C40 25 40 25 37.625 27.6875 C35 30 35 30 33 30 C32.7525 30.5775 32.505 31.155 32.25 31.75 C30.81700012 34.32939979 29.21575324 36.06121592 27 38 C26.34 38 25.68 38 25 38 C24.70749989 41.01836608 24.63431962 42.50484834 26.46875 44.98876953 C27.1390625 45.61380371 27.809375 46.23883789 28.5 46.8828125 C29.221875 47.57503906 29.94375 48.26726562 30.6875 48.98046875 C31.8321875 50.04201172 31.8321875 50.04201172 33 51.125 C34.50651282 52.53735577 36.00685793 53.95632855 37.5 55.3828125 C38.1703125 56.00559082 38.840625 56.62836914 39.53125 57.27001953 C41 59 41 59 41 62 C36.84452129 62.63281402 33.1412014 62.80426227 29 62 C25.29841935 59.19368537 22.76851466 55.69988189 20 52 C18.49475335 50.27791715 16.97483853 48.56849551 15.4375 46.875 C14.303125 45.59625 13.16875 44.3175 12 43 C11.67 49.27 11.34 55.54 11 62 C7.37 62 3.74 62 0 62 C0 41.54 0 21.08 0 0 Z " fill="#0C4251" transform="translate(287,202)"/>
<path d="M0 0 C4.86784369 2.99621402 8.6110058 6.36464959 10.3671875 11.89453125 C11.15264875 15.57896462 11.84545209 19.14015426 11.3671875 22.89453125 C9.5546875 24.72265625 9.5546875 24.72265625 7.3671875 25.89453125 C6.3771875 25.89453125 5.3871875 25.89453125 4.3671875 25.89453125 C5.6871875 28.53453125 7.0071875 31.17453125 8.3671875 33.89453125 C-1.96518244 41.44510928 -1.96518244 41.44510928 -9.11328125 40.4375 C-13.47595822 39.4973262 -17.78603884 38.18514316 -21.6328125 35.89453125 C-22.91796875 33.7578125 -22.91796875 33.7578125 -23.6328125 31.89453125 C-24.2928125 31.89453125 -24.9528125 31.89453125 -25.6328125 31.89453125 C-28.78013035 24.85307437 -29.46943684 18.43597757 -27.6328125 10.89453125 C-25.27594807 6.04680006 -21.62396256 1.92502973 -16.7421875 -0.47265625 C-11.14770517 -2.15100095 -5.41765119 -2.27477046 0 0 Z M-15.6328125 10.89453125 C-16.60158307 12.92696673 -16.60158307 12.92696673 -16.6328125 14.89453125 C-15.3128125 14.89453125 -13.9928125 14.89453125 -12.6328125 14.89453125 C-12.6328125 14.23453125 -12.6328125 13.57453125 -12.6328125 12.89453125 C-9.3328125 12.89453125 -6.0328125 12.89453125 -2.6328125 12.89453125 C-4.2887696 9.76689269 -4.2887696 9.76689269 -6.8828125 9.08203125 C-10.32599763 8.84726863 -12.52344372 9.41051433 -15.6328125 10.89453125 Z M-17.6328125 23.89453125 C-16.4208985 27.53027326 -14.84104648 28.3399232 -11.53515625 30.09765625 C-8.71361722 31.27957404 -6.64397776 31.35275205 -3.6328125 30.89453125 C-0.81500716 29.50567877 -0.81500716 29.50567877 1.3671875 27.89453125 C-1.98053332 24.54681043 -6.56409584 23.99684799 -11.16015625 23.76953125 C-13.32159419 23.76953125 -15.47338879 23.80455526 -17.6328125 23.89453125 Z " fill="#094252" transform="translate(395.6328125,225.10546875)"/>
<path d="M0 0 C0.680625 -0.01417969 1.36125 -0.02835938 2.0625 -0.04296875 C4 0.1875 4 0.1875 7 2.1875 C7 3.5075 7 4.8275 7 6.1875 C9.475 7.1775 9.475 7.1775 12 8.1875 C13.32 6.2075 14.64 4.2275 16 2.1875 C16.5775 2.868125 17.155 3.54875 17.75 4.25 C18.86375 5.2090625 18.86375 5.2090625 20 6.1875 C22.21858253 6.05108623 22.21858253 6.05108623 24 5.1875 C24.21011719 5.75339844 24.42023438 6.31929687 24.63671875 6.90234375 C26.50008007 10.0257431 28.88175597 11.61427901 31.8125 13.75 C33.36904297 14.89662109 33.36904297 14.89662109 34.95703125 16.06640625 C37.89992721 18.1827747 37.89992721 18.1827747 40.76171875 19.77734375 C43 21.1875 43 21.1875 45 24.1875 C45.62833844 28.92859915 45.31277083 33.19705904 43.875 37.75 C42 40.1875 42 40.1875 39.37890625 41.3359375 C35.39601607 41.1609666 34.90107147 40.56507207 32.16015625 37.84765625 C30.77519824 36.33231795 29.40991009 34.79882049 28.0625 33.25 C27.38509766 32.50169922 26.70769531 31.75339844 26.00976562 30.98242188 C23.35020165 28.03216731 20.74181733 25.03890729 18.13256836 22.04418945 C14.63937951 18.03705799 11.12652767 14.07864153 7.4375 10.25 C6.54933594 9.31285156 5.66117188 8.37570312 4.74609375 7.41015625 C1.71158154 4.95405747 -0.15449724 4.45290181 -4 4.1875 C-2.80687883 9.82770919 -1.44823972 11.71570315 3 15.1875 C4.37751712 17.5025668 5.13751956 19.60005869 6 22.1875 C5.67 22.8475 5.34 23.5075 5 24.1875 C-12.15496428 24.99163895 -12.15496428 24.99163895 -18 20.1875 C-26.84539598 11.58878837 -26.84539598 11.58878837 -27.125 5.4375 C-27.063125 4.32375 -27.063125 4.32375 -27 3.1875 C-26.01 3.6825 -26.01 3.6825 -25 4.1875 C-25 5.1775 -25 6.1675 -25 7.1875 C-24.2575 7.14625 -23.515 7.105 -22.75 7.0625 C-20 7.1875 -20 7.1875 -18.125 8.25 C-14.9414345 9.65451419 -12.33692312 8.82921599 -9 8.1875 C-8.855625 7.40375 -8.71125 6.62 -8.5625 5.8125 C-8 3.1875 -8 3.1875 -7 1.1875 C-4.35559361 0.3060312 -2.71939248 0.02575182 0 0 Z " fill="#148B8F" transform="translate(81,248.8125)"/>
<path d="M0 0 C4.24762963 3.35909486 7.33249222 7.98966417 9.03125 13.0859375 C9.03125 16.7159375 9.03125 20.3459375 9.03125 24.0859375 C0.45125 24.4159375 -8.12875 24.7459375 -16.96875 25.0859375 C-14.50596199 27.54872551 -12.26198018 28.08365005 -8.96875 29.0859375 C-8.96875 29.7459375 -8.96875 30.4059375 -8.96875 31.0859375 C-5.66875 29.7659375 -2.36875 28.4459375 1.03125 27.0859375 C4.03125 31.0859375 4.03125 31.0859375 4.09375 33.6484375 C2.56193596 37.16259913 0.51672812 37.67834057 -2.96875 39.0859375 C-4.1753125 39.67375 -4.1753125 39.67375 -5.40625 40.2734375 C-8.75321933 41.33467168 -11.47967175 41.4090003 -14.96875 41.0859375 C-16.53125 39.8359375 -16.53125 39.8359375 -17.96875 38.0859375 C-18.938125 37.4878125 -19.9075 36.8896875 -20.90625 36.2734375 C-25.11416253 33.26778569 -27.34073036 29.96999642 -28.96875 25.0859375 C-29.67008634 17.8656224 -29.3179976 12.96329912 -24.96875 7.0859375 C-18.7793752 -0.08070701 -9.29261697 -4.31442931 0 0 Z M-17.96875 12.0859375 C-18.29875 13.0759375 -18.62875 14.0659375 -18.96875 15.0859375 C-13.68875 15.0859375 -8.40875 15.0859375 -2.96875 15.0859375 C-2.63875 13.7659375 -2.30875 12.4459375 -1.96875 11.0859375 C-8.67515453 7.42789867 -11.84079741 7.31975215 -17.96875 12.0859375 Z " fill="#0B3F52" transform="translate(438.96875,224.9140625)"/>
<path d="M0 0 C3.63 0 7.26 0 11 0 C11.01401855 1.15000488 11.01401855 1.15000488 11.02832031 2.32324219 C11.08202773 5.79948103 11.16567576 9.27437474 11.25 12.75 C11.26417969 13.9565625 11.27835938 15.163125 11.29296875 16.40625 C11.32519531 17.56640625 11.35742188 18.7265625 11.390625 19.921875 C11.41157227 20.99018555 11.43251953 22.05849609 11.45410156 23.15917969 C12.12726812 26.66229508 13.14995087 27.90029848 16 30 C21.05692899 29.85718492 21.05692899 29.85718492 25 27 C25.37239227 24.18597317 25.37239227 24.18597317 25.4140625 20.8984375 C25.45273438 19.68671875 25.49140625 18.475 25.53125 17.2265625 C25.57765625 15.32003906 25.57765625 15.32003906 25.625 13.375 C25.66367188 12.09625 25.70234375 10.8175 25.7421875 9.5 C25.83671049 6.33347983 25.92226357 3.1669696 26 0 C29.63 0 33.26 0 37 0 C37.116965 4.33310328 37.1875089 8.6657958 37.25 13 C37.30027344 14.83111328 37.30027344 14.83111328 37.3515625 16.69921875 C37.43034924 23.98699238 37.01701842 28.84595715 33 35 C28.54210377 39.3435912 24.40710171 41.08539372 18.25 41.4375 C12.74004443 41.29769516 8.06993371 39.80071631 4 36 C-0.91707539 28.80427992 -0.47455105 21.99839344 -0.25 13.5 C-0.23195312 12.200625 -0.21390625 10.90125 -0.1953125 9.5625 C-0.14842615 6.37422849 -0.08280893 3.187507 0 0 Z " fill="#0D414F" transform="translate(190,224)"/>
<path d="M0 0 C1.62890625 0.82421875 1.62890625 0.82421875 3.81640625 2.32421875 C3.25094788 6.28242734 2.00738277 8.99012405 -0.18359375 12.32421875 C-1.21484375 11.97359375 -2.24609375 11.62296875 -3.30859375 11.26171875 C-7.25620293 10.30665201 -9.33998913 10.12843065 -13.18359375 11.32421875 C-15.73173085 13.25253872 -16.92292987 14.68124786 -18.12109375 17.63671875 C-18.20988471 21.45472993 -16.95052426 23.97967171 -15.18359375 27.32421875 C-11.45294531 29.81131771 -9.60727407 29.62412928 -5.18359375 29.32421875 C-1.86173204 28.41307339 -1.86173204 28.41307339 0.81640625 27.32421875 C4.81640625 31.82421875 4.81640625 31.82421875 4.81640625 36.32421875 C-0.67927965 40.44598317 -6.51075207 40.95650155 -13.18359375 40.32421875 C-19.83175283 38.10816572 -25.10441893 34.86351994 -28.453125 28.5078125 C-30.46474407 22.49446994 -30.16119365 15.66055382 -27.55859375 9.88671875 C-21.74040154 -0.03721903 -10.902786 -3.37420747 0 0 Z " fill="#0F404D" transform="translate(277.18359375,224.67578125)"/>
<path d="M0 0 C1.23556641 0.01740234 1.23556641 0.01740234 2.49609375 0.03515625 C3.32238281 0.04417969 4.14867187 0.05320313 5 0.0625 C5.63808594 0.07410156 6.27617187 0.08570313 6.93359375 0.09765625 C7.26359375 0.75765625 7.59359375 1.41765625 7.93359375 2.09765625 C8.46984375 1.77410156 9.00609375 1.45054687 9.55859375 1.1171875 C12.48030992 -0.13703605 14.76051353 -0.2029447 17.93359375 -0.21484375 C19.48046875 -0.23998047 19.48046875 -0.23998047 21.05859375 -0.265625 C24.24371343 0.13684257 25.59092913 0.96335362 27.93359375 3.09765625 C26.61359375 6.06765625 25.29359375 9.03765625 23.93359375 12.09765625 C22.61359375 11.76765625 21.29359375 11.43765625 19.93359375 11.09765625 C15.11021823 10.63864684 15.11021823 10.63864684 10.7578125 12.42578125 C7.85107816 16.68318229 8.29471176 21.12008904 8.24609375 26.16015625 C8.20400422 28.15111836 8.15857978 30.14201353 8.109375 32.1328125 C8.09817627 33.01332275 8.08697754 33.89383301 8.07543945 34.80102539 C7.93359375 37.09765625 7.93359375 37.09765625 6.93359375 40.09765625 C5.45452483 40.12454841 3.97531892 40.14400246 2.49609375 40.16015625 C1.67238281 40.17175781 0.84867187 40.18335938 0 40.1953125 C-2.06640625 40.09765625 -2.06640625 40.09765625 -3.06640625 39.09765625 C-3.1674388 36.29772028 -3.20610713 33.52296981 -3.19921875 30.72265625 C-3.20017548 29.88299316 -3.2011322 29.04333008 -3.20211792 28.17822266 C-3.20279973 26.3994133 -3.20094542 24.62060148 -3.19677734 22.84179688 C-3.19142908 20.10931849 -3.1967223 17.37700449 -3.203125 14.64453125 C-3.20246422 12.92057255 -3.20118306 11.19661396 -3.19921875 9.47265625 C-3.20124298 8.64975098 -3.20326721 7.8268457 -3.20535278 6.97900391 C-3.17693549 0.15013873 -3.17693549 0.15013873 0 0 Z " fill="#0A4152" transform="translate(337.06640625,223.90234375)"/>
<path d="M0 0 C7.71484375 -0.09765625 7.71484375 -0.09765625 10 0 C11.59690129 1.59690129 11.13527533 3.27268195 11.14526367 5.48461914 C11.15483345 6.91729881 11.15483345 6.91729881 11.16459656 8.37892151 C11.16570938 9.42047897 11.1668222 10.46203644 11.16796875 11.53515625 C11.17129715 12.60237411 11.17462555 13.66959198 11.17805481 14.76914978 C11.1831314 17.03644376 11.18546291 19.30374526 11.18530273 21.57104492 C11.1874754 25.02340268 11.20558503 28.47543382 11.22460938 31.92773438 C11.22754599 34.13020724 11.22952899 36.33268163 11.23046875 38.53515625 C11.23765427 39.5625441 11.24483978 40.58993195 11.25224304 41.64845276 C11.23014472 48.66721965 11.00335728 54.99496408 7 61 C4.4375 61.25 4.4375 61.25 2 61 C-1.69830156 57.30169844 -0.10998275 46.1714261 -0.125 41.1875 C-0.11163722 33.7604672 0.35254561 26.39947875 1 19 C0.34 18.67 -0.32 18.34 -1 18 C-0.505 9.09 -0.505 9.09 0 0 Z " fill="#0D3E4D" transform="translate(453,202)"/>
<path d="M0 0 C10.74621032 -0.86046168 10.74621032 -0.86046168 14.4375 2.125 C21.631774 10.19662449 22 13.60345327 22 25 C13.75 25 5.5 25 -3 25 C-2.01 24.34 -1.02 23.68 0 23 C-2.64 22.34 -5.28 21.68 -8 21 C-8 20.34 -8 19.68 -8 19 C-7.15695312 18.95101562 -6.31390625 18.90203125 -5.4453125 18.8515625 C-4.34960938 18.77679688 -3.25390625 18.70203125 -2.125 18.625 C-1.03445313 18.55539063 0.05609375 18.48578125 1.1796875 18.4140625 C4.13046474 18.26746509 4.13046474 18.26746509 6 16 C6.680625 15.855625 7.36125 15.71125 8.0625 15.5625 C8.701875 15.376875 9.34125 15.19125 10 15 C10.33 14.01 10.66 13.02 11 12 C10.071875 11.71125 9.14375 11.4225 8.1875 11.125 C5 10 5 10 2 8 C2 7.34 2 6.68 2 6 C1.05125 6.474375 0.1025 6.94875 -0.875 7.4375 C-2.58333333 8.29166667 -4.29166667 9.14583333 -6 10 C-6 9.01 -6 8.02 -6 7 C-6.99 6.67 -7.98 6.34 -9 6 C-7.68 6 -6.36 6 -5 6 C-5 5.34 -5 4.68 -5 4 C-3.02 3.67 -1.04 3.34 1 3 C0.67 2.01 0.34 1.02 0 0 Z " fill="#084350" transform="translate(426,224)"/>
<path d="M0 0 C0.69222656 0.20753906 1.38445312 0.41507812 2.09765625 0.62890625 C6.70702481 2.13664363 9.6973976 3.49073697 12 8 C12.70287812 12.83127718 12.34326037 16.91300884 10.875 21.5625 C9 24 9 24 6.3671875 25.12109375 C1.73647255 24.95455992 0.31497581 23.03296617 -2.76171875 19.7421875 C-3.41785156 19.00226563 -4.07398437 18.26234375 -4.75 17.5 C-5.42160156 16.79101562 -6.09320313 16.08203125 -6.78515625 15.3515625 C-10.71430371 11.05233502 -12.94044618 7.75186361 -14 2 C-14.66 2 -15.32 2 -16 2 C-15.67 1.34 -15.34 0.68 -15 0 C-14.01 0.33 -13.02 0.66 -12 1 C-11.67 0.34 -11.34 -0.32 -11 -1 C-10.34 -1 -9.68 -1 -9 -1 C-5.85654826 -2.57172587 -3.1646005 -1.04252921 0 0 Z " fill="#0FA7A2" transform="translate(114,265)"/>
<path d="M0 0 C5.54832168 0.44386573 8.46851495 1.88460403 13 5 C20.3306498 7.93225992 28.93753173 8.17328494 36.4375 5.6875 C37.613125 5.460625 38.78875 5.23375 40 5 C43.37211158 7.4924303 45.42028026 10.1225061 47 14 C45.25386986 15.74613014 42.83218302 15.14567315 40.45800781 15.16113281 C39.27297668 15.17074036 38.08794556 15.1803479 36.86700439 15.19024658 C34.92963409 15.1966214 34.92963409 15.1966214 32.953125 15.203125 C31.63463562 15.20882507 30.31614624 15.21452515 28.95770264 15.22039795 C26.15994887 15.23091929 23.36222391 15.23675382 20.56445312 15.24023438 C16.98544473 15.24570717 13.4068191 15.26970377 9.82793045 15.29820633 C7.07406521 15.31686895 4.32029123 15.32204032 1.5663681 15.32357025 C-0.39287216 15.32805856 -2.35206351 15.34669295 -4.31121826 15.36553955 C-6.10767792 15.3610379 -6.10767792 15.3610379 -7.94042969 15.35644531 C-8.99220398 15.36009094 -10.04397827 15.36373657 -11.12762451 15.36749268 C-14.46742953 14.94019691 -16.30780835 13.99579015 -19 12 C-21.56687367 8.1496895 -20.83288724 6.41430237 -20 2 C-19.34 2 -18.68 2 -18 2 C-17.67 3.32 -17.34 4.64 -17 6 C-16.01 6 -15.02 6 -14 6 C-13.67 8.31 -13.34 10.62 -13 13 C-12.34 12.67 -11.68 12.34 -11 12 C-3.89888259 10.74931396 2.87937835 11.12007527 10 12 C10.32348872 8.9304403 10.32348872 8.9304403 8.25 6.9375 C6.18873445 5.16252133 4.5457607 3.93344559 2 3 C1.01 3.495 1.01 3.495 0 4 C0 2.68 0 1.36 0 0 Z " fill="#26B0B5" transform="translate(54,276)"/>
<path d="M0 0 C3.3 0 6.6 0 10 0 C11 1 11 1 11.11352539 4.69360352 C11.11336624 6.33871292 11.10766988 7.98382731 11.09765625 9.62890625 C11.0962413 10.49313705 11.09482635 11.35736786 11.09336853 12.24778748 C11.08775239 15.01939292 11.07519719 17.7909188 11.0625 20.5625 C11.05748708 22.4368478 11.05292381 24.31119685 11.04882812 26.18554688 C11.03777772 30.79039544 11.0205023 35.39518421 11 40 C7.37 40 3.74 40 0 40 C0 26.8 0 13.6 0 0 Z " fill="#0C3F50" transform="translate(233,224)"/>
<path d="M0 0 C4.86784369 2.99621402 8.6110058 6.36464959 10.3671875 11.89453125 C11.15264875 15.57896462 11.84545209 19.14015426 11.3671875 22.89453125 C9.5546875 24.72265625 9.5546875 24.72265625 7.3671875 25.89453125 C6.3771875 25.89453125 5.3871875 25.89453125 4.3671875 25.89453125 C5.6871875 28.53453125 7.0071875 31.17453125 8.3671875 33.89453125 C1.6171875 38.89453125 1.6171875 38.89453125 -0.6328125 38.89453125 C-0.9628125 37.90453125 -1.2928125 36.91453125 -1.6328125 35.89453125 C0.0171875 35.23453125 1.6671875 34.57453125 3.3671875 33.89453125 C3.3671875 32.90453125 3.3671875 31.91453125 3.3671875 30.89453125 C1.0571875 31.55453125 -1.2528125 32.21453125 -3.6328125 32.89453125 C-3.6328125 31.90453125 -3.6328125 30.91453125 -3.6328125 29.89453125 C-2.3128125 29.23453125 -0.9928125 28.57453125 0.3671875 27.89453125 C-2.2728125 26.57453125 -4.9128125 25.25453125 -7.6328125 23.89453125 C-7.6328125 23.56453125 -7.6328125 23.23453125 -7.6328125 22.89453125 C-6.78976562 22.84554687 -5.94671875 22.7965625 -5.078125 22.74609375 C-3.98242188 22.67132813 -2.88671875 22.5965625 -1.7578125 22.51953125 C-0.66726563 22.44992188 0.42328125 22.3803125 1.546875 22.30859375 C4.49765224 22.16199634 4.49765224 22.16199634 6.3671875 19.89453125 C5.7071875 18.57453125 5.0471875 17.25453125 4.3671875 15.89453125 C3.7071875 15.89453125 3.0471875 15.89453125 2.3671875 15.89453125 C1.9546875 15.13140625 1.5421875 14.36828125 1.1171875 13.58203125 C-1.01896431 10.3015124 -3.07860933 9.39519481 -6.6328125 7.89453125 C-6.6328125 5.89453125 -6.6328125 3.89453125 -6.6328125 1.89453125 C-13.05324154 1.26068053 -13.05324154 1.26068053 -18.6328125 4.14453125 C-20.4833612 6.68903571 -20.92760245 7.97294677 -21.6328125 10.89453125 C-23.6128125 11.88453125 -23.6128125 11.88453125 -25.6328125 12.89453125 C-25.6328125 18.17453125 -25.6328125 23.45453125 -25.6328125 28.89453125 C-24.9728125 28.89453125 -24.3128125 28.89453125 -23.6328125 28.89453125 C-23.1996875 29.65765625 -22.7665625 30.42078125 -22.3203125 31.20703125 C-20.43233091 34.21381674 -18.75142708 35.29308052 -15.6328125 36.89453125 C-16.6228125 37.38953125 -16.6228125 37.38953125 -17.6328125 37.89453125 C-19.67114674 36.62057235 -21.67133376 35.28391202 -23.6328125 33.89453125 C-23.6328125 33.23453125 -23.6328125 32.57453125 -23.6328125 31.89453125 C-24.2928125 31.89453125 -24.9528125 31.89453125 -25.6328125 31.89453125 C-28.78013035 24.85307437 -29.46943684 18.43597757 -27.6328125 10.89453125 C-25.27594807 6.04680006 -21.62396256 1.92502973 -16.7421875 -0.47265625 C-11.14770517 -2.15100095 -5.41765119 -2.27477046 0 0 Z " fill="#0E4056" transform="translate(395.6328125,225.10546875)"/>
<path d="M0 0 C0 0.66 0 1.32 0 2 C2.31 2.33 4.62 2.66 7 3 C7 3.66 7 4.32 7 5 C8.32 5 9.64 5 11 5 C11.33 4.34 11.66 3.68 12 3 C12.495 4.485 12.495 4.485 13 6 C14.32 6 15.64 6 17 6 C17.0825 6.78375 17.165 7.5675 17.25 8.375 C17.4975 9.24125 17.745 10.1075 18 11 C18.66 11.28875 19.32 11.5775 20 11.875 C20.66 12.24625 21.32 12.6175 22 13 C22.75 16.625 22.75 16.625 23 20 C22.34 20 21.68 20 21 20 C21 19.34 21 18.68 21 18 C20.34 18 19.68 18 19 18 C17.91280319 16.78939166 16.87945376 15.53009456 15.875 14.25 C10.80800647 8.29812611 5.67521016 6.02844007 -2 5 C-9.49317217 4.42649498 -15.58088742 4.53858178 -22.29296875 8.125 C-24 9 -24 9 -26 9 C-25.67 10.32 -25.34 11.64 -25 13 C-20.99430563 14.25177949 -18.36656963 13.6141917 -14.40234375 12.48046875 C-9.66467848 11.5329357 -4.80916718 11.85572498 0 12 C0.495 12.99 0.495 12.99 1 14 C0.39414063 13.94199219 -0.21171875 13.88398438 -0.8359375 13.82421875 C-7.2377065 13.47950811 -11.25346185 14.66978219 -16.7734375 17.90625 C-19 19 -19 19 -23 19 C-26.63257651 17.59795292 -29.75801583 16.16132278 -33 14 C-32.67 12.68 -32.34 11.36 -32 10 C-31.34 10 -30.68 10 -30 10 C-30 9.34 -30 8.68 -30 8 C-29.34 8 -28.68 8 -28 8 C-27.67 7.01 -27.34 6.02 -27 5 C-18.36113227 1.32118702 -9.34660161 -0.23366504 0 0 Z " fill="#1C4853" transform="translate(86,214)"/>
<path d="M0 0 C0.680625 -0.01417969 1.36125 -0.02835938 2.0625 -0.04296875 C4 0.1875 4 0.1875 7 2.1875 C7 3.5075 7 4.8275 7 6.1875 C9.475 7.1775 9.475 7.1775 12 8.1875 C13.32 6.2075 14.64 4.2275 16 2.1875 C16.5775 2.868125 17.155 3.54875 17.75 4.25 C18.86375 5.2090625 18.86375 5.2090625 20 6.1875 C22.21858253 6.05108623 22.21858253 6.05108623 24 5.1875 C24.33644531 6.06148437 24.33644531 6.06148437 24.6796875 6.953125 C26.37805353 9.8272829 28.35834074 11.0930605 31.125 12.9375 C32.49011719 13.85789062 32.49011719 13.85789062 33.8828125 14.796875 C34.58148438 15.25578125 35.28015625 15.7146875 36 16.1875 C33 17.1875 33 17.1875 29.625 16.125 C25.61318083 15.08746056 24.56774065 15.35541696 21 17.1875 C19.67323492 17.54608516 18.34164079 17.8893576 17 18.1875 C17.66 18.1875 18.32 18.1875 19 18.1875 C19.66 19.1775 20.32 20.1675 21 21.1875 C20.67 22.1775 20.34 23.1675 20 24.1875 C19.62230469 23.73761719 19.24460937 23.28773438 18.85546875 22.82421875 C15.17240942 18.52012834 11.35900836 14.33766829 7.4375 10.25 C6.54933594 9.31285156 5.66117188 8.37570312 4.74609375 7.41015625 C1.71158154 4.95405747 -0.15449724 4.45290181 -4 4.1875 C-4.33 5.1775 -4.66 6.1675 -5 7.1875 C-5.66 7.1875 -6.32 7.1875 -7 7.1875 C-7 5.2075 -7 3.2275 -7 1.1875 C-4.35559361 0.3060312 -2.71939248 0.02575182 0 0 Z " fill="#1A7A7F" transform="translate(81,248.8125)"/>
<path d="M0 0 C2.97 0.99 5.94 1.98 9 3 C9 3.66 9 4.32 9 5 C12.3 3.68 15.6 2.36 19 1 C22 5 22 5 22.0625 7.5625 C20.53068596 11.07666163 18.48547812 11.59240307 15 13 C14.195625 13.391875 13.39125 13.78375 12.5625 14.1875 C9.30414852 15.22063584 6.39587207 15.13317145 3 15 C2.731875 14.401875 2.46375 13.80375 2.1875 13.1875 C1.14592636 10.9691873 1.14592636 10.9691873 -0.5625 9.625 C-2.62278935 7.29597725 -2.6639317 5.02461466 -3 2 C-2.01 2 -1.02 2 0 2 C0 1.34 0 0.68 0 0 Z " fill="#0B4761" transform="translate(421,251)"/>
<path d="M0 0 C0.69222656 0.20753906 1.38445312 0.41507812 2.09765625 0.62890625 C6.70702481 2.13664363 9.6973976 3.49073697 12 8 C12.30940565 11.36220803 12.23522305 14.63500366 12 18 C11.34 18 10.68 18 10 18 C9.566875 16.948125 9.13375 15.89625 8.6875 14.8125 C6.48302645 9.10377342 6.48302645 9.10377342 2.25 5 C-1.27517702 5 -3.8386853 6.48013716 -7 8 C-6.484375 8.94875 -5.96875 9.8975 -5.4375 10.875 C-4.963125 11.90625 -4.48875 12.9375 -4 14 C-4.33 14.66 -4.66 15.32 -5 16 C-9.92533226 11.66728794 -12.80055631 8.53030454 -14 2 C-14.66 2 -15.32 2 -16 2 C-15.67 1.34 -15.34 0.68 -15 0 C-14.01 0.33 -13.02 0.66 -12 1 C-11.67 0.34 -11.34 -0.32 -11 -1 C-10.34 -1 -9.68 -1 -9 -1 C-5.85654826 -2.57172587 -3.1646005 -1.04252921 0 0 Z " fill="#129293" transform="translate(114,265)"/>
<path d="M0 0 C7.71484375 -0.09765625 7.71484375 -0.09765625 10 0 C11 1 11 1 11.11352539 2.76586914 C11.10828857 3.51473389 11.10305176 4.26359863 11.09765625 5.03515625 C11.09443359 5.84404297 11.09121094 6.65292969 11.08789062 7.48632812 C11.07951172 8.33646484 11.07113281 9.18660156 11.0625 10.0625 C11.05798828 10.91650391 11.05347656 11.77050781 11.04882812 12.65039062 C11.03700373 14.76695663 11.01906769 16.88348685 11 19 C10.01 19 9.02 19 8 19 C7.34 18.34 6.68 17.68 6 17 C5.34 17.66 4.68 18.32 4 19 C2.35 19 0.7 19 -1 19 C-0.67 12.73 -0.34 6.46 0 0 Z " fill="#0C404F" transform="translate(453,202)"/>
<path d="M0 0 C0.66 0 1.32 0 2 0 C2.33 1.32 2.66 2.64 3 4 C3.99 4 4.98 4 6 4 C6.33 6.31 6.66 8.62 7 11 C7.66 10.67 8.32 10.34 9 10 C10.59749778 9.74553133 12.20369716 9.54383988 13.8125 9.375 C14.66457031 9.27960938 15.51664063 9.18421875 16.39453125 9.0859375 C19 9 19 9 21.09912109 9.48852539 C25.08708084 10.19167096 28.978361 10.12286883 33.01953125 10.09765625 C33.87810226 10.0962413 34.73667328 10.09482635 35.6212616 10.09336853 C38.35171049 10.08779057 41.08207607 10.07524214 43.8125 10.0625 C45.6686186 10.05748215 47.5247385 10.05291974 49.38085938 10.04882812 C53.9206048 10.03782836 58.4602883 10.02057893 63 10 C62.505 8.02 62.505 8.02 62 6 C63.65 7.65 65.3 9.3 67 11 C66.67 11.66 66.34 12.32 66 13 C58.26339486 13.06959394 50.52682229 13.12285889 42.78997517 13.15543652 C39.19719171 13.17107439 35.60462285 13.19227779 32.01196289 13.22631836 C28.54305609 13.25897965 25.07435536 13.27686714 21.60530663 13.28463173 C19.64161248 13.29285018 17.67800092 13.31625892 15.71443176 13.33988953 C14.5135643 13.34011612 13.31269684 13.34034271 12.07543945 13.34057617 C11.02064896 13.34723801 9.96585846 13.35389984 8.87910461 13.36076355 C5.53128007 12.94126748 3.69656337 12.00110523 1 10 C-1.56687367 6.1496895 -0.83288724 4.41430237 0 0 Z " fill="#36B0B6" transform="translate(34,278)"/>
<path d="M0 0 C1.77007714 -0.08114106 3.54122098 -0.13925505 5.3125 -0.1875 C6.29863281 -0.22230469 7.28476562 -0.25710937 8.30078125 -0.29296875 C11 0 11 0 12.85546875 1.32421875 C14 3 14 3 14 6 C14.66 6.33 15.32 6.66 16 7 C15.01 7.66 14.02 8.32 13 9 C15.475 9.495 15.475 9.495 18 10 C16.375 15.75 16.375 15.75 13 18 C12.01 17.67 11.02 17.34 10 17 C10.33 15.35 10.66 13.7 11 12 C10.071875 11.71125 9.14375 11.4225 8.1875 11.125 C5 10 5 10 2 8 C2 7.34 2 6.68 2 6 C1.05125 6.474375 0.1025 6.94875 -0.875 7.4375 C-2.58333333 8.29166667 -4.29166667 9.14583333 -6 10 C-6 9.01 -6 8.02 -6 7 C-6.99 6.67 -7.98 6.34 -9 6 C-7.68 6 -6.36 6 -5 6 C-5 5.34 -5 4.68 -5 4 C-3.02 3.67 -1.04 3.34 1 3 C0.67 2.01 0.34 1.02 0 0 Z " fill="#0A4052" transform="translate(426,224)"/>
<path d="M0 0 C2.39774745 -0.13572155 4.78775245 -0.23436868 7.1875 -0.3125 C8.19780273 -0.3753418 8.19780273 -0.3753418 9.22851562 -0.43945312 C13.21836318 -0.53676648 14.7989502 -0.16454409 17.92578125 2.39453125 C20.87769218 6.10248716 21.12778921 7.84403989 21.14526367 12.51953125 C21.15164352 13.67412842 21.15802338 14.82872559 21.16459656 16.01831055 C21.16570938 17.27039307 21.1668222 18.52247559 21.16796875 19.8125 C21.17129715 21.09229736 21.17462555 22.37209473 21.17805481 23.69067383 C21.18404544 26.40088749 21.18589473 29.11106925 21.18530273 31.82128906 C21.185201 35.29846962 21.19886523 38.77544651 21.21607494 42.25257874 C21.2298476 45.56422255 21.22928303 48.87582787 21.23046875 52.1875 C21.23765427 53.43958252 21.24483978 54.69166504 21.25224304 55.98168945 C21.24916641 57.13628662 21.24608978 58.29088379 21.24291992 59.48046875 C21.24434494 60.50035889 21.24576996 61.52024902 21.24723816 62.57104492 C21 65 21 65 19 67 C17.16399255 65.85845641 15.33125195 64.71165684 13.5 63.5625 C11.96859375 62.60537109 11.96859375 62.60537109 10.40625 61.62890625 C9.6121875 61.09136719 8.818125 60.55382812 8 60 C8 59.67 8 59.34 8 59 C11.96 59 15.92 59 20 59 C19.9278125 58.16984375 19.855625 57.3396875 19.78125 56.484375 C18.98823622 45.95491427 18.94291787 35.49639481 19.125 24.93847656 C19.50416469 13.8786828 19.50416469 13.8786828 15.4375 3.9375 C12.26444338 2.71709361 9.58044249 2.91119651 6.21875 3.1875 C3.38331638 2.94788589 2.10980151 1.84128131 0 0 Z " fill="#153D49" transform="translate(105,197)"/>
<path d="M0 0 C1.49080078 0.02707031 1.49080078 0.02707031 3.01171875 0.0546875 C3.77097656 0.07789063 4.53023438 0.10109375 5.3125 0.125 C4.6525 2.435 3.9925 4.745 3.3125 7.125 C3.869375 7.186875 4.42625 7.24875 5 7.3125 C8.30318042 8.4730769 10.03144733 10.52713446 12.3125 13.125 C12.3125 13.785 12.3125 14.445 12.3125 15.125 C5.7125 15.125 -0.8875 15.125 -7.6875 15.125 C-8.69300483 10.09747583 -8.65216531 9.40103627 -6.6875 5.125 C-6.6875 4.465 -6.6875 3.805 -6.6875 3.125 C-7.3475 2.795 -8.0075 2.465 -8.6875 2.125 C-5.26655758 -0.15562828 -4.00562778 -0.09425007 0 0 Z M-5.6875 10.125 C-6.65627057 12.15743548 -6.65627057 12.15743548 -6.6875 14.125 C-5.3675 14.125 -4.0475 14.125 -2.6875 14.125 C-2.6875 13.465 -2.6875 12.805 -2.6875 12.125 C0.6125 12.125 3.9125 12.125 7.3125 12.125 C5.6565429 8.99736144 5.6565429 8.99736144 3.0625 8.3125 C-0.38068513 8.07773738 -2.57813122 8.64098308 -5.6875 10.125 Z " fill="#0F404F" transform="translate(385.6875,225.875)"/>
<path d="M0 0 C0 1.32 0 2.64 0 4 C-3.13005912 7.02212605 -6.20318016 7.24875511 -10.375 7.375 C-15.2941774 7.25518242 -18.68126716 6.30332418 -23 4 C-23 3.01 -23 2.02 -23 1 C-19.97470703 -0.71875767 -17.52024287 -1.33729874 -14.0625 -1.625 C-13.22847656 -1.69976562 -12.39445312 -1.77453125 -11.53515625 -1.8515625 C-3.88080631 -2.29973707 -3.88080631 -2.29973707 0 0 Z " fill="#0B4151" transform="translate(282,257)"/>
<path d="M0 0 C2.86801846 0.08864784 3.78417611 0.16414857 6.125 1.9375 C7.45524773 5.3961441 6.91857025 7.8190159 6.0625 11.375 C4.0625 13.375 4.0625 13.375 0.6875 13.75 C-2.9375 13.375 -2.9375 13.375 -5.4375 11.8125 C-6.9375 9.375 -6.9375 9.375 -6.8125 5.75 C-5.56632018 0.94330641 -4.9976319 0.47596494 0 0 Z " fill="#1A3C47" transform="translate(237.9375,205.625)"/>
<path d="M0 0 C2 1 4 2 6 3 C6.7425 3.350625 7.485 3.70125 8.25 4.0625 C10 5 10 5 12 7 C11.9765625 9.6015625 11.9765625 9.6015625 11.625 12.625 C11.45871094 14.12933594 11.45871094 14.12933594 11.2890625 15.6640625 C11.14597656 16.82035156 11.14597656 16.82035156 11 18 C10.01 17.67 9.02 17.34 8 17 C8 14.03 8 11.06 8 8 C7.34 7.67 6.68 7.34 6 7 C5.85763044 19.53172217 5.85763044 19.53172217 7 32 C1.87600306 26.19280347 0.7302874 21.29476774 0.875 13.625 C0.89304688 12.37976563 0.91109375 11.13453125 0.9296875 9.8515625 C0.95289063 8.91054687 0.97609375 7.96953125 1 7 C0.34 6.67 -0.32 6.34 -1 6 C-1.042721 4.33388095 -1.04063832 2.66617115 -1 1 C-0.67 0.67 -0.34 0.34 0 0 Z " fill="#1F4A5C" transform="translate(45,235)"/>
<path d="M0 0 C0.33 0.66 0.66 1.32 1 2 C0.2884375 3.175625 0.2884375 3.175625 -0.4375 4.375 C-2.67412659 9.56397368 -2.24347219 14.42719213 -2 20 C-1.34 20 -0.68 20 0 20 C0 19.01 0 18.02 0 17 C3.64823039 14.66513255 6.74410043 14.69600717 11 15 C13.4375 16 13.4375 16 15 17 C13.906875 17.04125 12.81375 17.0825 11.6875 17.125 C7.8321259 17.61510772 7.8321259 17.61510772 6.0625 20.6875 C4.99378494 24.01937638 4.75202217 26.52831043 5 30 C5.99 30.33 6.98 30.66 8 31 C7.34 31.33 6.68 31.66 6 32 C0.45091256 28.72099379 -2.89838663 25.30484011 -5 19 C-5.70105993 11.7825306 -5.25576395 6.93227702 -1 1 C-0.67 0.67 -0.34 0.34 0 0 Z " fill="#083C4D" transform="translate(415,231)"/>
<path d="M0 0 C3.63 0 7.26 0 11 0 C11 20.79 11 41.58 11 63 C8.03 63 5.06 63 2 63 C1 62 1 62 0.90234375 59.27734375 C0.91394531 58.17519531 0.92554688 57.07304687 0.9375 55.9375 C0.94652344 54.83277344 0.95554688 53.72804688 0.96484375 52.58984375 C0.97644531 51.73519531 0.98804688 50.88054687 1 50 C1.33 50 1.66 50 2 50 C2.33 53.3 2.66 56.6 3 60 C4.98 59.34 6.96 58.68 9 58 C9 39.19 9 20.38 9 1 C4.545 1.495 4.545 1.495 0 2 C0 1.34 0 0.68 0 0 Z " fill="#193E4D" transform="translate(173,224)"/>
<path d="M0 0 C0 0.99 0 1.98 0 3 C0.66 3.33 1.32 3.66 2 4 C-1.07560262 5.76258433 -3.53990472 6.31278359 -7.0625 6.5625 C-9.996066 6.77865749 -12.18596973 7.06198991 -15 8 C-17.1875 7.5625 -17.1875 7.5625 -19 7 C-19.185625 5.824375 -19.185625 5.824375 -19.375 4.625 C-19.79117993 1.85942178 -19.79117993 1.85942178 -22 0 C-18.7421807 -1.62890965 -15.14735997 -1.46548142 -11.5625 -1.6875 C-10.39750977 -1.77741211 -10.39750977 -1.77741211 -9.20898438 -1.86914062 C-3.3557593 -2.23717287 -3.3557593 -2.23717287 0 0 Z " fill="#063E4D" transform="translate(402,242)"/>
<path d="M0 0 C3.63 0 7.26 0 11 0 C11.01401855 1.15000488 11.01401855 1.15000488 11.02832031 2.32324219 C11.08202773 5.79948103 11.16567576 9.27437474 11.25 12.75 C11.26417969 13.9565625 11.27835938 15.163125 11.29296875 16.40625 C11.32519531 17.56640625 11.35742188 18.7265625 11.390625 19.921875 C11.41157227 20.99018555 11.43251953 22.05849609 11.45410156 23.15917969 C12.12544613 26.65281357 13.18634422 27.8767025 16 30 C19.08347826 30.16681109 19.08347826 30.16681109 22 30 C22.66 30.66 23.32 31.32 24 32 C22.4375 33.1875 22.4375 33.1875 20 34 C15.9507272 32.6502424 12.73262244 31.31933256 10 28 C8.38472297 19.48308477 8.91073812 10.63856654 9 2 C6.69 1.67 4.38 1.34 2 1 C2 10.9 2 20.8 2 31 C-0.39112209 27.41331687 -0.23381027 25.83603431 -0.1953125 21.58203125 C-0.18886719 20.32841797 -0.18242187 19.07480469 -0.17578125 17.78320312 C-0.15902344 16.47287109 -0.14226562 15.16253906 -0.125 13.8125 C-0.11496639 12.47722013 -0.1058412 11.14193311 -0.09765625 9.80664062 C-0.07405292 6.53757985 -0.04112594 3.26887972 0 0 Z " fill="#183D48" transform="translate(190,224)"/>
<path d="M0 0 C0.33 0 0.66 0 1 0 C1 1.98 1 3.96 1 6 C1.66 6.33 2.32 6.66 3 7 C4.12253962 9.28015861 5.04602194 11.61361667 6 13.96875 C6.82709949 16.16560255 6.82709949 16.16560255 9 17 C9.33 15.68 9.66 14.36 10 13 C11.32 13.99 12.64 14.98 14 16 C13.835 16.61875 13.67 17.2375 13.5 17.875 C12.92365356 19.96063386 12.92365356 19.96063386 13 22 C12.2575 21.835 11.515 21.67 10.75 21.5 C7.80993422 20.88074304 7.80993422 20.88074304 4 21 C3.34 23.64 2.68 26.28 2 29 C1.34 29 0.68 29 0 29 C0 19.43 0 9.86 0 0 Z " fill="#184A57" transform="translate(32,219)"/>
<path d="M0 0 C0 2.31 0 4.62 0 7 C-0.99 7.33 -1.98 7.66 -3 8 C-3 6 -3 4 -3 2 C-9.42042904 1.36614928 -9.42042904 1.36614928 -15 4.25 C-16.8505487 6.79450446 -17.29478995 8.07841552 -18 11 C-19.98 11.99 -19.98 11.99 -22 13 C-22 18.28 -22 23.56 -22 29 C-21.34 29 -20.68 29 -20 29 C-19.566875 29.763125 -19.13375 30.52625 -18.6875 31.3125 C-16.79951841 34.31928549 -15.11861458 35.39854927 -12 37 C-12.99 37.495 -12.99 37.495 -14 38 C-16.03833424 36.7260411 -18.03852126 35.38938077 -20 34 C-20 33.34 -20 32.68 -20 32 C-20.66 32 -21.32 32 -22 32 C-25.14731785 24.95854312 -25.83662434 18.54144632 -24 11 C-21.62313361 6.11112766 -17.93962587 2.05036447 -13.078125 -0.45703125 C-8.75958828 -1.58537073 -4.34037532 -0.72208776 0 0 Z " fill="#153C46" transform="translate(392,225)"/>
<path d="M0 0 C2.475 0.495 2.475 0.495 5 1 C4.67 1.99 4.34 2.98 4 4 C4.969375 4.45375 5.93875 4.9075 6.9375 5.375 C10 7 10 7 11 9 C14.91402949 7.73058503 16.79072873 6.48832306 19 3 C20.875 3.125 20.875 3.125 23 4 C24.25 7.0625 24.25 7.0625 25 10 C22.7216731 12.2783269 17.95019977 11.30494254 14.87646484 11.32788086 C9.11664163 11.24052744 4.22355941 10.22355941 0 6 C-0.04080783 4.00041636 -0.04254356 1.99954746 0 0 Z " fill="#218F97" transform="translate(62,262)"/>
<path d="M0 0 C2.0625 1.6875 2.0625 1.6875 4 4 C4.125 6.5625 4.125 6.5625 3 9 C-0.76152397 11.36188714 -4.77038158 12.69083239 -9 14 C-9 13.01 -9 12.02 -9 11 C-9.66 10.67 -10.32 10.34 -11 10 C-7.65178571 2.90178571 -7.65178571 2.90178571 -3.25 1.0625 C-2.1775 0.711875 -1.105 0.36125 0 0 Z " fill="#0C3A4D" transform="translate(439,252)"/>
<path d="M0 0 C0.33 0.66 0.66 1.32 1 2 C3.02463255 2.65213292 3.02463255 2.65213292 5 3 C4.01 3.33 3.02 3.66 2 4 C1.70749989 7.01836608 1.63431962 8.50484834 3.46875 10.98876953 C4.47421875 11.9263208 4.47421875 11.9263208 5.5 12.8828125 C6.5828125 13.92115234 6.5828125 13.92115234 7.6875 14.98046875 C8.450625 15.68816406 9.21375 16.39585937 10 17.125 C11.50651282 18.53735577 13.00685793 19.95632855 14.5 21.3828125 C15.1703125 22.00559082 15.840625 22.62836914 16.53125 23.27001953 C18 25 18 25 18 28 C14.04 28 10.08 28 6 28 C5.67 27.01 5.34 26.02 5 25 C6.65 25.33 8.3 25.66 10 26 C10.33 25.01 10.66 24.02 11 23 C11.33 22.67 11.66 22.34 12 22 C10.68 21.34 9.36 20.68 8 20 C8 19.34 8 18.68 8 18 C7.01 17.67 6.02 17.34 5 17 C3.63823419 15.01924973 2.30406884 13.01920337 1 11 C0.34 10.67 -0.32 10.34 -1 10 C-1.125 2.25 -1.125 2.25 0 0 Z " fill="#14414C" transform="translate(310,236)"/>
<path d="M0 0 C1.546875 -0.02513672 1.546875 -0.02513672 3.125 -0.05078125 C6.31011968 0.35168632 7.65733538 1.17819737 10 3.3125 C8.68 6.2825 7.36 9.2525 6 12.3125 C4.68 11.9825 3.36 11.6525 2 11.3125 C-2.99649069 10.83451957 -2.99649069 10.83451957 -7.375 12.9375 C-9.2999963 15.75095613 -9.69393785 17.9458163 -10 21.3125 C-10.66 20.9825 -11.32 20.6525 -12 20.3125 C-11.34 17.3425 -10.68 14.3725 -10 11.3125 C-8.68 10.9825 -7.36 10.6525 -6 10.3125 C-6 9.6525 -6 8.9925 -6 8.3125 C-1.94952424 6.96234141 0.7920168 7.69165002 5 8.3125 C5 6.3325 5 4.3525 5 2.3125 C3.56344146 2.23118537 2.1255517 2.17316441 0.6875 2.125 C-0.11300781 2.09019531 -0.91351563 2.05539063 -1.73828125 2.01953125 C-4.47851584 2.37448392 -5.29171079 3.20616282 -7 5.3125 C-7.99 4.9825 -8.98 4.6525 -10 4.3125 C-10 3.6525 -10 2.9925 -10 2.3125 C-6.61494922 0.27007753 -3.92471691 0.01471769 0 0 Z " fill="#193E49" transform="translate(355,223.6875)"/>
<path d="M0 0 C5.54832168 0.44386573 8.46851495 1.88460403 13 5 C20.40894502 7.96357801 28.96790712 8.02289126 36.625 5.875 C37.73875 5.58625 38.8525 5.2975 40 5 C40.66 5.66 41.32 6.32 42 7 C39.59657592 9.40342408 38.73440212 9.33998969 35.4296875 9.6328125 C34.53378906 9.71660156 33.63789062 9.80039062 32.71484375 9.88671875 C31.77769531 9.96535156 30.84054688 10.04398437 29.875 10.125 C28.93011719 10.21136719 27.98523438 10.29773438 27.01171875 10.38671875 C24.67507582 10.59914083 22.3380033 10.80321542 20 11 C19.67 10.01 19.34 9.02 19 8 C18.12859375 8.05285156 17.2571875 8.10570312 16.359375 8.16015625 C12.65999635 7.98379052 10.53091957 7.10061807 7.25 5.4375 C5.52710917 4.56899356 3.78100181 3.74208409 2 3 C1.01 3.495 1.01 3.495 0 4 C0 2.68 0 1.36 0 0 Z " fill="#34A9A9" transform="translate(54,276)"/>
<path d="M0 0 C1.66666667 1.66666667 3.33333333 3.33333333 5 5 C5.70125 5.598125 6.4025 6.19625 7.125 6.8125 C11.32539908 11.7129656 12.2482231 17.73519248 13 24 C13.33 24.66 13.66 25.32 14 26 C13.34 26 12.68 26 12 26 C11.67 26.66 11.34 27.32 11 28 C6.90697674 22.79069767 6.90697674 22.79069767 7.375 18.8125 C7.58125 17.884375 7.7875 16.95625 8 16 C7.34 15.01 6.68 14.02 6 13 C5.67 12.01 5.34 11.02 5 10 C4.34 9.67 3.68 9.34 3 9 C1.65160149 6.0652503 0.6998952 3.14952839 0 0 Z " fill="#1B505B" transform="translate(90,228)"/>
<path d="M0 0 C0.66 0 1.32 0 2 0 C2 13.2 2 26.4 2 40 C3.65 40 5.3 40 7 40 C6.67 40.66 6.34 41.32 6 42 C4.33388095 42.042721 2.66617115 42.04063832 1 42 C-2.69830156 38.30169844 -1.10998275 27.1714261 -1.125 22.1875 C-1.11163722 14.7604672 -0.64745439 7.39947875 0 0 Z " fill="#000A18" transform="translate(454,221)"/>
<path d="M0 0 C0.33 0 0.66 0 1 0 C1 9.24 1 18.48 1 28 C1.66 28 2.32 28 3 28 C2.67 29.98 2.34 31.96 2 34 C4.31 34.33 6.62 34.66 9 35 C8.97679687 33.95199219 8.95359375 32.90398437 8.9296875 31.82421875 C8.91092697 30.44531963 8.89272707 29.0664128 8.875 27.6875 C8.85824219 26.99720703 8.84148437 26.30691406 8.82421875 25.59570312 C8.78782206 21.82864604 8.85621136 20.21568296 11 17 C11 23.27 11 29.54 11 36 C7.37 36 3.74 36 0 36 C0 24.12 0 12.24 0 0 Z " fill="#1C3F4A" transform="translate(287,228)"/>
<path d="M0 0 C0.66 0 1.32 0 2 0 C4.15817694 29.32808311 4.15817694 29.32808311 1 39 C0.67 39 0.34 39 0 39 C0 26.13 0 13.26 0 0 Z " fill="#00060B" transform="translate(461,221)"/>
<path d="M0 0 C0.680625 -0.01417969 1.36125 -0.02835938 2.0625 -0.04296875 C4 0.1875 4 0.1875 7 2.1875 C7 3.5075 7 4.8275 7 6.1875 C7.99 6.8475 8.98 7.5075 10 8.1875 C11.61785127 10.82715207 12 12.02762675 12 15.1875 C11.34773438 14.47722656 10.69546875 13.76695312 10.0234375 13.03515625 C8.71246094 11.65650391 8.71246094 11.65650391 7.375 10.25 C6.51648438 9.33347656 5.65796875 8.41695313 4.7734375 7.47265625 C1.71853974 4.9555926 -0.10502639 4.45592193 -4 4.1875 C-4.33 5.1775 -4.66 6.1675 -5 7.1875 C-5.66 7.1875 -6.32 7.1875 -7 7.1875 C-7 5.2075 -7 3.2275 -7 1.1875 C-4.35559361 0.3060312 -2.71939248 0.02575182 0 0 Z " fill="#1F636A" transform="translate(81,248.8125)"/>
<path d="M0 0 C4.03620153 1.34540051 4.85167306 3.41945509 7 7 C8.04976964 10.14930893 8.10131595 12.38814456 8.0625 15.6875 C8.05347656 16.68136719 8.04445313 17.67523438 8.03515625 18.69921875 C8.02355469 19.45847656 8.01195312 20.21773437 8 21 C6.02 21 4.04 21 2 21 C2.33 20.38125 2.66 19.7625 3 19.125 C4.40387684 14.73788488 4.15967523 10.56848573 4 6 C2.35 6 0.7 6 -1 6 C-1.33 5.34 -1.66 4.68 -2 4 C-1.01 3.67 -0.02 3.34 1 3 C0.67 2.01 0.34 1.02 0 0 Z " fill="#08324D" transform="translate(440,228)"/>
<path d="M0 0 C0.33 0.66 0.66 1.32 1 2 C1.66 2.33 2.32 2.66 3 3 C3.625 6.0625 3.625 6.0625 4 9 C3.21625 9.28875 2.4325 9.5775 1.625 9.875 C-1.09671632 10.84912254 -1.09671632 10.84912254 -3 13 C-6 9.25 -6 9.25 -6 7 C-6.99 6.67 -7.98 6.34 -9 6 C-8.67 5.01 -8.34 4.02 -8 3 C-5.66666667 3 -3.33333333 3 -1 3 C-0.67 2.01 -0.34 1.02 0 0 Z " fill="#19B2B0" transform="translate(121,276)"/>
<path d="M0 0 C1.32 0 2.64 0 4 0 C3.79375 0.9075 3.5875 1.815 3.375 2.75 C2.70514141 5.86998865 2.70514141 5.86998865 3.9921875 7.8828125 C5.26051249 10.54727818 5.08024539 12.21362616 4.75 15.125 C4.66234375 15.99382812 4.5746875 16.86265625 4.484375 17.7578125 C4 20 4 20 2 22 C-0.10209857 18.84685215 -0.2434761 18.13896919 -0.1953125 14.55078125 C-0.18886719 13.70322266 -0.18242187 12.85566406 -0.17578125 11.98242188 C-0.15902344 11.10134766 -0.14226563 10.22027344 -0.125 9.3125 C-0.11597656 8.41982422 -0.10695313 7.52714844 -0.09765625 6.60742188 C-0.07409748 4.40467686 -0.04120329 2.20247412 0 0 Z " fill="#286971" transform="translate(32,248)"/>
<path d="M0 0 C0.33 0.99 0.66 1.98 1 3 C0.34 3 -0.32 3 -1 3 C-1.66 4.98 -2.32 6.96 -3 9 C-5.31 8.67 -7.62 8.34 -10 8 C-10.25 5.1875 -10.25 5.1875 -10 2 C-6.92702006 -1.66393762 -4.38919352 -1.09729838 0 0 Z " fill="#0B4051" transform="translate(244,208)"/>
<path d="M0 0 C2.475 2.475 2.475 2.475 5 5 C4.67 5.66 4.34 6.32 4 7 C-15.8 7 -35.6 7 -56 7 C-56 6.67 -56 6.34 -56 6 C-36.86 6 -17.72 6 2 6 C1.34 4.02 0.68 2.04 0 0 Z " fill="#51A1A7" transform="translate(96,284)"/>
<path d="M0 0 C3.3 0 6.6 0 10 0 C11 1 11 1 11.0625 4.0625 C11.041875 5.031875 11.02125 6.00125 11 7 C10.690625 6.360625 10.38125 5.72125 10.0625 5.0625 C9.1654837 3.06389179 9.1654837 3.06389179 8 2 C5.69 1.67 3.38 1.34 1 1 C1 13.54 1 26.08 1 39 C3.97 38.34 6.94 37.68 10 37 C10.33 37.99 10.66 38.98 11 40 C7.37 40 3.74 40 0 40 C0 26.8 0 13.6 0 0 Z " fill="#23434C" transform="translate(233,224)"/>
<path d="M0 0 C3.25772807 0.04094093 4.26065799 0.31884944 7.1875 2.0625 C9.25 4.3125 9.25 4.3125 10.25 8.3125 C5.3 8.3125 0.35 8.3125 -4.75 8.3125 C-4.75 7.3225 -4.75 6.3325 -4.75 5.3125 C-0.295 4.8175 -0.295 4.8175 4.25 4.3125 C3.321875 4.003125 2.39375 3.69375 1.4375 3.375 C-0.625 2.6875 -2.6875 2 -4.75 1.3125 C-3.75 0.3125 -3.75 0.3125 0 0 Z " fill="#508596" transform="translate(387.75,232.6875)"/>
<path d="M0 0 C0 0.66 0 1.32 0 2 C0.66 2.33 1.32 2.66 2 3 C1.43410156 3.26554688 0.86820312 3.53109375 0.28515625 3.8046875 C-0.44832031 4.15789062 -1.18179687 4.51109375 -1.9375 4.875 C-2.66839844 5.22304687 -3.39929688 5.57109375 -4.15234375 5.9296875 C-6.16332459 6.8684977 -6.16332459 6.8684977 -7 9 C-5.82630859 9.07347656 -5.82630859 9.07347656 -4.62890625 9.1484375 C-3.61699219 9.22320312 -2.60507812 9.29796875 -1.5625 9.375 C-0.55316406 9.44460937 0.45617187 9.51421875 1.49609375 9.5859375 C2.73552734 9.79089844 2.73552734 9.79089844 4 10 C4.33 10.66 4.66 11.32 5 12 C0.05 12 -4.9 12 -10 12 C-10 6 -10 6 -7.6875 3.1875 C-5.04644086 1.0378007 -3.43106257 0 0 0 Z " fill="#000B26" transform="translate(428,230)"/>
<path d="M0 0 C0.33 0.66 0.66 1.32 1 2 C0.525625 2.886875 0.05125 3.77375 -0.4375 4.6875 C-3.35936637 10.8818567 -2.15654406 17.6607084 0 24 C1.94914146 26.98525925 1.94914146 26.98525925 4 29 C3.01 29 2.02 29 1 29 C-0.3515625 27.57421875 -0.3515625 27.57421875 -1.625 25.6875 C-2.05039062 25.07261719 -2.47578125 24.45773438 -2.9140625 23.82421875 C-5.81474567 18.95148839 -5.58072484 13.48632151 -5 8 C-3.83678694 4.96507137 -2.32755049 2.32755049 0 0 Z " fill="#010E37" transform="translate(415,231)"/>
<path d="M0 0 C0.99 0.495 0.99 0.495 2 1 C2 1.99 2 2.98 2 4 C2.763125 3.938125 3.52625 3.87625 4.3125 3.8125 C7 4 7 4 8.8125 5.3125 C10 7 10 7 10 10 C9.34 10 8.68 10 8 10 C8 11.65 8 13.3 8 15 C0.17307692 7.59615385 0.17307692 7.59615385 -0.1875 2.1875 C-0.125625 1.465625 -0.06375 0.74375 0 0 Z " fill="#1F7B84" transform="translate(54,252)"/>
<path d="M0 0 C7.59 0 15.18 0 23 0 C23 0.99 23 1.98 23 3 C15.74 3 8.48 3 1 3 C0.67 2.01 0.34 1.02 0 0 Z " fill="#0B334A" transform="translate(47,196)"/>
<path d="M0 0 C2.96065032 0.3200703 4.55406123 0.53723336 6.65625 2.71875 C8.27419551 5.4654947 8.31220835 7.09072186 8.1875 10.25 C8.16042969 11.14203125 8.13335937 12.0340625 8.10546875 12.953125 C8.07066406 13.62859375 8.03585938 14.3040625 8 15 C7.34 15 6.68 15 6 15 C5.566875 13.948125 5.13375 12.89625 4.6875 11.8125 C3.68885231 9.45854474 2.65954551 7.44518527 1.3125 5.25 C0 3 0 3 0 0 Z " fill="#239B9A" transform="translate(118,268)"/>
<path d="M0 0 C0.66 0 1.32 0 2 0 C2.33 1.32 2.66 2.64 3 4 C3.99 4 4.98 4 6 4 C6.33 6.31 6.66 8.62 7 11 C9.97 11 12.94 11 16 11 C16 11.33 16 11.66 16 12 C13.91846065 12.13536022 11.83438794 12.23215465 9.75 12.3125 C8.58984375 12.37050781 7.4296875 12.42851562 6.234375 12.48828125 C3 12 3 12 0.5625 9.71875 C-1.51363243 6.10627958 -0.93344746 3.9671517 0 0 Z " fill="#2EA7A3" transform="translate(34,278)"/>
<path d="M0 0 C1.9375 2.5 1.9375 2.5 3 5 C1.87926138 5.83905565 0.75325453 6.67107831 -0.375 7.5 C-1.31472656 8.19609375 -1.31472656 8.19609375 -2.2734375 8.90625 C-4 10 -4 10 -6 10 C-6.33 9.01 -6.66 8.02 -7 7 C-5.35 6.34 -3.7 5.68 -2 5 C-2 4.01 -2 3.02 -2 2 C-4.31 2.66 -6.62 3.32 -9 4 C-9 3.01 -9 2.02 -9 1 C-5.88122044 -0.55938978 -3.42744229 -0.3607834 0 0 Z " fill="#020724" transform="translate(401,254)"/>
<path d="M0 0 C1.97194115 1.97194115 2.832365 3.50904533 4 6 C4.83333333 8.16666667 4.83333333 8.16666667 7 9 C8.33333333 9.66666667 9.66666667 10.33333333 11 11 C11 11.66 11 12.32 11 13 C18.05651252 13.14975239 18.05651252 13.14975239 25 12 C25 12.66 25 13.32 25 14 C20.65896224 16.17051888 14.49042683 15.78002048 9.9296875 14.3515625 C4.55286966 11.53054148 -0.07602219 6.77193342 -2 1 C-1.34 0.67 -0.68 0.34 0 0 Z " fill="#193F49" transform="translate(147,250)"/>
<path d="M0 0 C0.639375 0.33 1.27875 0.66 1.9375 1 C1.2775 1.66 0.6175 2.32 -0.0625 3 C-1.890625 2.66015625 -1.890625 2.66015625 -4.0625 2 C-5.64275005 1.78807905 -7.22648461 1.60076629 -8.8125 1.4375 C-10.01132813 1.31181641 -10.01132813 1.31181641 -11.234375 1.18359375 C-11.83765625 1.12300781 -12.4409375 1.06242188 -13.0625 1 C-13.3925 1.66 -13.7225 2.32 -14.0625 3 C-15.01382813 3.42925781 -15.01382813 3.42925781 -15.984375 3.8671875 C-18.55854416 5.27040001 -19.12010233 6.48469088 -20.3125 9.125 C-20.64765625 9.84945312 -20.9828125 10.57390625 -21.328125 11.3203125 C-21.57046875 11.87460938 -21.8128125 12.42890625 -22.0625 13 C-22.7225 13 -23.3825 13 -24.0625 13 C-24.3925 13.99 -24.7225 14.98 -25.0625 16 C-24.39256782 10.23858323 -22.97510227 6.71643793 -18.625 2.8125 C-12.60476775 -1.44571305 -7.09533462 -2.31684396 0 0 Z " fill="#1D3D49" transform="translate(170.0625,225)"/>
<path d="M0 0 C0.99 0.495 0.99 0.495 2 1 C2 1.66 2 2.32 2 3 C3.32 3 4.64 3 6 3 C6.0825 3.78375 6.165 4.5675 6.25 5.375 C6.4975 6.24125 6.745 7.1075 7 8 C7.99 8.433125 7.99 8.433125 9 8.875 C9.66 9.24625 10.32 9.6175 11 10 C11.75 13.625 11.75 13.625 12 17 C11.34 17 10.68 17 10 17 C10 16.34 10 15.68 10 15 C9.34 15 8.68 15 8 15 C6.2734375 13.25 6.2734375 13.25 4.375 11 C3.74335937 10.2575 3.11171875 9.515 2.4609375 8.75 C1.97882813 8.1725 1.49671875 7.595 1 7 C1.66 6.67 2.32 6.34 3 6 C3 5.34 3 4.68 3 4 C2.34 4 1.68 4 1 4 C0.67 2.68 0.34 1.36 0 0 Z " fill="#0F3D4A" transform="translate(97,217)"/>
<path d="M0 0 C0.99 0.33 1.98 0.66 3 1 C3.36372387 3.24847481 3.71564096 5.49886188 4.0625 7.75 C4.25972656 9.00296875 4.45695312 10.2559375 4.66015625 11.546875 C4.95080818 14.50016589 4.98935727 16.2602414 4 19 C-0.05375044 13.63858813 -1.43720236 9.43516138 -0.5625 2.5625 C-0.376875 1.716875 -0.19125 0.87125 0 0 Z " fill="#21676D" transform="translate(47,248)"/>
<path d="M0 0 C0.66 0.33 1.32 0.66 2 1 C2 1.66 2 2.32 2 3 C0.02 3.33 -1.96 3.66 -4 4 C-4.12375 5.051875 -4.2475 6.10375 -4.375 7.1875 C-4.91140782 10.45958771 -5.63880035 13.00536076 -7 16 C-8.70840281 14.36587557 -9.93453047 13.13093906 -11 11 C-10.1938672 6.87976569 -9.40255326 5.31690363 -6.0625 2.6875 C-3 1 -3 1 0 0 Z " fill="#0D414D" transform="translate(425,224)"/>
<path d="M0 0 C1.17046875 0.03609375 2.3409375 0.0721875 3.546875 0.109375 C4.43890625 0.15578125 5.3309375 0.2021875 6.25 0.25 C6.25 3.25 6.25 3.25 3.875 5.9375 C1.25 8.25 1.25 8.25 -0.75 8.25 C-1.03875 8.889375 -1.3275 9.52875 -1.625 10.1875 C-2.75 12.25 -2.75 12.25 -4.75 13.25 C-4.5625 10.875 -4.5625 10.875 -3.75 8.25 C-2.08333333 7.58333333 -0.41666667 6.91666667 1.25 6.25 C2.14386164 3.70224694 2.14386164 3.70224694 2.25 1.25 C-0.39 1.25 -3.03 1.25 -5.75 1.25 C-5.75 1.91 -5.75 2.57 -5.75 3.25 C-7.4 3.58 -9.05 3.91 -10.75 4.25 C-7.43152371 0.07726249 -5.22729025 -0.20909161 0 0 Z " fill="#143943" transform="translate(320.75,223.75)"/>
<path d="M0 0 C1.60379341 -0.05416188 3.20811406 -0.09286638 4.8125 -0.125 C5.70582031 -0.14820313 6.59914063 -0.17140625 7.51953125 -0.1953125 C10 0 10 0 13 2 C13 2.66 13 3.32 13 4 C12.34 4 11.68 4 11 4 C11.33 4.99 11.66 5.98 12 7 C13.65 7.33 15.3 7.66 17 8 C16.67 9.32 16.34 10.64 16 12 C15.4225 11.690625 14.845 11.38125 14.25 11.0625 C12.15705816 10.07416636 10.25464725 9.4831387 8 9 C8.33 6.36 8.66 3.72 9 1 C6.03 1 3.06 1 0 1 C0 0.67 0 0.34 0 0 Z " fill="#064350" transform="translate(383,224)"/>
<path d="M0 0 C0.33 0 0.66 0 1 0 C1.25485425 3.26936494 1.47442831 6.54016741 1.6875 9.8125 C1.76033203 10.74126953 1.83316406 11.67003906 1.90820312 12.62695312 C1.96298828 13.51962891 2.01777344 14.41230469 2.07421875 15.33203125 C2.13182373 16.15421143 2.18942871 16.9763916 2.2487793 17.82348633 C1.94044082 20.52106974 1.07168402 21.32607931 -1 23 C-1.8279336 15.58680994 -2.39279547 8.38181598 -1 1 C-0.67 0.67 -0.34 0.34 0 0 Z " fill="#064350" transform="translate(458,237)"/>
<path d="M0 0 C0.33 1.65 0.66 3.3 1 5 C-3.62 5 -8.24 5 -13 5 C-9.527365 1.527365 -5.15494213 -2.57747106 0 0 Z " fill="#2DB6B9" transform="translate(97,284)"/>
<path d="M0 0 C0.33 0 0.66 0 1 0 C1 1.98 1 3.96 1 6 C1.66 6.33 2.32 6.66 3 7 C5 10 5 10 4.6875 12.625 C4 15 4 15 3 16 C3.66 16.66 4.32 17.32 5 18 C3.68 19.65 2.36 21.3 1 23 C0 22 0 22 -0.11352539 19.86694336 C-0.10828857 18.95050049 -0.10305176 18.03405762 -0.09765625 17.08984375 C-0.09443359 16.10048828 -0.09121094 15.11113281 -0.08789062 14.09179688 C-0.07951172 13.05087891 -0.07113281 12.00996094 -0.0625 10.9375 C-0.05798828 9.89271484 -0.05347656 8.84792969 -0.04882812 7.77148438 C-0.03699913 5.1809334 -0.02051689 2.59049441 0 0 Z " fill="#1B3E4A" transform="translate(32,219)"/>
<path d="M0 0 C5.54832168 0.44386573 8.46851495 1.88460403 13 5 C15.31953332 5.8498695 17.59138476 6.42193234 20 7 C20 7.33 20 7.66 20 8 C13.82396858 8.68622571 9.84096054 6.78801991 4.35546875 3.99609375 C3.57816406 3.66738281 2.80085938 3.33867187 2 3 C1.01 3.495 1.01 3.495 0 4 C0 2.68 0 1.36 0 0 Z " fill="#3D9EA0" transform="translate(54,276)"/>
<path d="M0 0 C2.67639429 3.95640895 2.26056386 8.04120443 2.1875 12.625 C2.18685547 13.40101563 2.18621094 14.17703125 2.18554688 14.9765625 C2.140687 20.71862599 2.140687 20.71862599 1 23 C-0.65 22.67 -2.3 22.34 -4 22 C-3.34 21.67 -2.68 21.34 -2 21 C-1.34 21.33 -0.68 21.66 0 22 C-0.03552979 21.36908447 -0.07105957 20.73816895 -0.10766602 20.08813477 C-0.26467409 17.24652446 -0.4136919 14.404551 -0.5625 11.5625 C-0.61857422 10.56927734 -0.67464844 9.57605469 -0.73242188 8.55273438 C-0.78076172 7.60849609 -0.82910156 6.66425781 -0.87890625 5.69140625 C-0.9260376 4.81685791 -0.97316895 3.94230957 -1.02172852 3.04125977 C-1 1 -1 1 0 0 Z " fill="#173B44" transform="translate(110,235)"/>
<path d="M0 0 C-1.77065111 0.64633275 -3.54152753 1.2920483 -5.3125 1.9375 C-6.29863281 2.29714844 -7.28476563 2.65679687 -8.30078125 3.02734375 C-10.1920563 3.70885965 -12.09284329 4.3642811 -14 5 C-13.42655063 7.86724686 -13.1385485 8.8614515 -11 11 C-12.32 10.67 -13.64 10.34 -15 10 C-16.125 3.25 -16.125 3.25 -15 1 C-12.63671875 0.33203125 -12.63671875 0.33203125 -9.6875 -0.1875 C-8.72199219 -0.36667969 -7.75648437 -0.54585937 -6.76171875 -0.73046875 C-4.14592982 -0.98575791 -2.46648091 -0.82606605 0 0 Z " fill="#223F48" transform="translate(74,218)"/>
<path d="M0 0 C1.64574566 -0.02688151 3.29161413 -0.04634123 4.9375 -0.0625 C5.85402344 -0.07410156 6.77054687 -0.08570313 7.71484375 -0.09765625 C10 0 10 0 11 1 C11.08631874 2.34267413 11.10706473 3.68974322 11.09765625 5.03515625 C11.09443359 5.84404297 11.09121094 6.65292969 11.08789062 7.48632812 C11.07951172 8.33646484 11.07113281 9.18660156 11.0625 10.0625 C11.05798828 10.91650391 11.05347656 11.77050781 11.04882812 12.65039062 C11.03700373 14.76695663 11.01906769 16.88348685 11 19 C10.34 19 9.68 19 9 19 C9.03480469 17.94039062 9.06960938 16.88078125 9.10546875 15.7890625 C9.13360399 14.40105748 9.16090443 13.01303537 9.1875 11.625 C9.21263672 10.92632812 9.23777344 10.22765625 9.26367188 9.5078125 C9.32978561 7.23252323 9.32978561 7.23252323 9 4 C6.15173402 1.63307034 6.15173402 1.63307034 2.8125 2.375 C1.884375 2.58125 0.95625 2.7875 0 3 C0 2.01 0 1.02 0 0 Z " fill="#183B42" transform="translate(453,202)"/>
<path d="M0 0 C0.33 0 0.66 0 1 0 C1.33 3.3 1.66 6.6 2 10 C3.98 9.34 5.96 8.68 8 8 C8.33 5.69 8.66 3.38 9 1 C9.33 1 9.66 1 10 1 C10 4.96 10 8.92 10 13 C3.06640625 13.09765625 3.06640625 13.09765625 1 13 C0 12 0 12 -0.09765625 9.27734375 C-0.08605469 8.17519531 -0.07445312 7.07304687 -0.0625 5.9375 C-0.05347656 4.83277344 -0.04445312 3.72804688 -0.03515625 2.58984375 C-0.02355469 1.73519531 -0.01195312 0.88054687 0 0 Z " fill="#244C55" transform="translate(174,274)"/>
<path d="M0 0 C4.20172849 2.52103709 6.88106444 4.52669159 9 9 C9 9.66 9 10.32 9 11 C7.125 10.75 7.125 10.75 5 10 C3.75 7.9375 3.75 7.9375 3 6 C1.35 6 -0.3 6 -2 6 C-2 4.68 -2 3.36 -2 2 C-1.34 2 -0.68 2 0 2 C0 1.34 0 0.68 0 0 Z " fill="#0E3C56" transform="translate(396,226)"/>
<path d="M0 0 C0.66 0.33 1.32 0.66 2 1 C1.67 1.99 1.34 2.98 1 4 C1.99 3.67 2.98 3.34 4 3 C4.99 5.31 5.98 7.62 7 10 C6.34 10.66 5.68 11.32 5 12 C4.34 11.67 3.68 11.34 3 11 C3 10.34 3 9.68 3 9 C2.071875 8.566875 2.071875 8.566875 1.125 8.125 C-1 7 -1 7 -3 5 C-2.34 5 -1.68 5 -1 5 C-0.67 3.35 -0.34 1.7 0 0 Z " fill="#1A7B81" transform="translate(73,252)"/>
<path d="M0 0 C0.33 0 0.66 0 1 0 C1 5.28 1 10.56 1 16 C1.66 16 2.32 16 3 16 C3.66 18.31 4.32 20.62 5 23 C5.66 23 6.32 23 7 23 C6.67 23.99 6.34 24.98 6 26 C1.58489007 21.55788634 -0.89325785 18.51127132 -1 12 C-0.76811102 7.9873125 -0.42655239 3.99646781 0 0 Z " fill="#1B3F49" transform="translate(297,223)"/>
<path d="M0 0 C0.33 0.66 0.66 1.32 1 2 C0.35933594 1.97679687 -0.28132813 1.95359375 -0.94140625 1.9296875 C-6.3823927 1.81616468 -10.78445296 2.26148432 -16 4 C-17.66246041 4.35371498 -19.32774271 4.69595322 -21 5 C-20.67 4.01 -20.34 3.02 -20 2 C-13.38612061 -0.37101337 -6.96126834 -0.20883805 0 0 Z " fill="#1A3F45" transform="translate(86,226)"/>
<path d="M0 0 C2.19191368 2.19191368 2.27869352 3.11477408 3 6 C3.66 6.66 4.32 7.32 5 8 C4.01 9.485 4.01 9.485 3 11 C2.60612212 13.32387947 2.26513915 15.65793749 2 18 C0 16 0 16 -0.1953125 12.3046875 C-0.182009 10.82799892 -0.15814835 9.35137642 -0.125 7.875 C-0.11146484 6.74384766 -0.11146484 6.74384766 -0.09765625 5.58984375 C-0.0740687 3.72642746 -0.03819719 1.86317407 0 0 Z " fill="#378E91" transform="translate(32,267)"/>
<path d="M0 0 C0.99 0.33 1.98 0.66 3 1 C2.43454163 4.95820859 1.19097652 7.6659053 -1 11 C-2.98 10.34 -4.96 9.68 -7 9 C-7 8.34 -7 7.68 -7 7 C-3.535 6.505 -3.535 6.505 0 6 C-0.33 5.01 -0.66 4.02 -1 3 C-0.67 2.01 -0.34 1.02 0 0 Z " fill="#1B4349" transform="translate(278,226)"/>
<path d="M0 0 C2.45862401 -0.05383848 4.9160755 -0.09359038 7.375 -0.125 C8.42300781 -0.15013672 8.42300781 -0.15013672 9.4921875 -0.17578125 C11.32897486 -0.19344267 13.16601963 -0.10303261 15 0 C15.66 0.66 16.32 1.32 17 2 C12.47046119 4.2647694 8.96952231 4.31552523 4 4 C1.5 3 1.5 3 0 2 C0 1.34 0 0.68 0 0 Z " fill="#0E3743" transform="translate(83,196)"/>
<path d="M0 0 C3.40320742 1.01176437 4.75725331 1.64843582 6.8125 4.625 C7.204375 5.40875 7.59625 6.1925 8 7 C8.78375 6.484375 9.5675 5.96875 10.375 5.4375 C11.24125 4.963125 12.1075 4.48875 13 4 C13.66 4.33 14.32 4.66 15 5 C13.3125 7.0625 13.3125 7.0625 11 9 C8.625 9.1875 8.625 9.1875 6 8 C3.77117295 5.83440209 1.80454758 3.53008733 0 1 C0 0.67 0 0.34 0 0 Z " fill="#3CA4A0" transform="translate(110,281)"/>
<path d="M0 0 C3.26023324 0.22484367 4.93132641 0.5260489 7.625 2.25 C5.954375 2.37375 5.954375 2.37375 4.25 2.5 C0.56746056 2.82873787 0.56746056 2.82873787 -0.8125 5.3125 C-0.998125 5.951875 -1.18375 6.59125 -1.375 7.25 C-2.365 6.92 -3.355 6.59 -4.375 6.25 C-5.1875 4.3125 -5.1875 4.3125 -5.375 2.25 C-3.375 0.25 -3.375 0.25 0 0 Z " fill="#072533" transform="translate(422.375,245.75)"/>
<path d="M0 0 C1.32 0.33 2.64 0.66 4 1 C5.14637376 5.45812016 5.07795422 8.84409155 3 13 C2.34 12.67 1.68 12.34 1 12 C1.01740234 11.07767578 1.01740234 11.07767578 1.03515625 10.13671875 C1.04417969 9.32847656 1.05320313 8.52023438 1.0625 7.6875 C1.07410156 6.88699219 1.08570313 6.08648437 1.09765625 5.26171875 C1.09657855 2.83138666 1.09657855 2.83138666 0 0 Z " fill="#17525E" transform="translate(52,240)"/>
<path d="M0 0 C1.43655854 -0.08131463 2.8744483 -0.13933559 4.3125 -0.1875 C5.51326172 -0.23970703 5.51326172 -0.23970703 6.73828125 -0.29296875 C9 0 9 0 10.79296875 1.32421875 C12 3 12 3 12 6 C11.34 6 10.68 6 10 6 C9.67 5.34 9.34 4.68 9 4 C7.10466658 3.53476937 7.10466658 3.53476937 4.9375 3.375 C3.638125 3.25125 2.33875 3.1275 1 3 C0.67 2.01 0.34 1.02 0 0 Z " fill="#1D597C" transform="translate(428,224)"/>
<path d="M0 0 C0.66 0.33 1.32 0.66 2 1 C2.6875 3.5 2.6875 3.5 3 6 C2 7 2 7 -1.5625 7.0625 C-2.696875 7.041875 -3.83125 7.02125 -5 7 C-3.75023244 3.34683329 -3.32901247 2.21934164 0 0 Z " fill="#2C8685" transform="translate(84,266)"/>
<path d="M0 0 C0.66 0 1.32 0 2 0 C3.32 2.97 4.64 5.94 6 9 C5.34 9 4.68 9 4 9 C3.67 9.66 3.34 10.32 3 11 C-1.06153846 5.70769231 -1.06153846 5.70769231 -0.75 2.125 C-0.5025 1.42375 -0.255 0.7225 0 0 Z " fill="#1A5665" transform="translate(98,245)"/>
<path d="M0 0 C4.62 0 9.24 0 14 0 C13.34 0.66 12.68 1.32 12 2 C11.01 2 10.02 2 9 2 C9 2.99 9 3.98 9 5 C5.85262818 4.30058404 2.97411124 3.23921302 0 2 C0 1.34 0 0.68 0 0 Z " fill="#032255" transform="translate(391,249)"/>
<path d="M0 0 C0.66 0.33 1.32 0.66 2 1 C1.875 3.3125 1.875 3.3125 1 6 C-3.83997253 9.22664835 -3.83997253 9.22664835 -7.19921875 8.5703125 C-7.79347656 8.38210938 -8.38773437 8.19390625 -9 8 C-8.43410156 7.67386719 -7.86820312 7.34773438 -7.28515625 7.01171875 C-6.55167969 6.57472656 -5.81820313 6.13773437 -5.0625 5.6875 C-4.33160156 5.25824219 -3.60070312 4.82898438 -2.84765625 4.38671875 C-0.70022588 3.04889746 -0.70022588 3.04889746 0 0 Z " fill="#000710" transform="translate(441,255)"/>
<path d="M0 0 C2 2 2 2 2.046875 4.3125 C1.94890625 5.199375 1.8509375 6.08625 1.75 7 C1.66234375 7.886875 1.5746875 8.77375 1.484375 9.6875 C1 12 1 12 -1 14 C-2 13 -2 13 -2.1875 9.8125 C-2.00651269 6.13242468 -1.33113308 3.41102853 0 0 Z " fill="#1E797C" transform="translate(35,256)"/>
<path d="M0 0 C0.33 0.66 0.66 1.32 1 2 C1.66 2.33 2.32 2.66 3 3 C3.625 6.0625 3.625 6.0625 4 9 C2.02 9.99 2.02 9.99 0 11 C-1.125 3.375 -1.125 3.375 0 0 Z " fill="#25AAAB" transform="translate(121,276)"/>
<path d="M0 0 C0.33 0.66 0.66 1.32 1 2 C0.54625 2.886875 0.0925 3.77375 -0.375 4.6875 C-2.10260562 8.20915762 -2.61211192 11.12111921 -3 15 C-3.66 15 -4.32 15 -5 15 C-5.50026167 8.8717946 -4.28177721 5.97238972 -1 1 C-0.67 0.67 -0.34 0.34 0 0 Z " fill="#000B1A" transform="translate(415,231)"/>
<path d="M0 0 C0.99 0 1.98 0 3 0 C1.375 5.75 1.375 5.75 -2 8 C-2.99 7.67 -3.98 7.34 -5 7 C-4.67 5.35 -4.34 3.7 -4 2 C-2.68 1.67 -1.36 1.34 0 1 C0 0.67 0 0.34 0 0 Z " fill="#175774" transform="translate(441,234)"/>
<path d="M0 0 C0 0.99 0 1.98 0 3 C-1.45635371 3.22174933 -2.91522956 3.42698698 -4.375 3.625 C-5.18710937 3.74101562 -5.99921875 3.85703125 -6.8359375 3.9765625 C-7.55007812 3.98429688 -8.26421875 3.99203125 -9 4 C-9.66 3.34 -10.32 2.68 -11 2 C-7.17010894 0.19769832 -4.21878192 -0.19622241 0 0 Z " fill="#0E3344" transform="translate(46,196)"/>
<path d="M0 0 C1.32 0.33 2.64 0.66 4 1 C3.34 2.32 2.68 3.64 2 5 C-0.875 5.125 -0.875 5.125 -4 5 C-4.66 4.34 -5.32 3.68 -6 3 C-4.02 2.67 -2.04 2.34 0 2 C0 1.34 0 0.68 0 0 Z " fill="#2B5574" transform="translate(391,261)"/>
<path d="M0 0 C0.99 0.495 0.99 0.495 2 1 C2 1.99 2 2.98 2 4 C3.32 4.33 4.64 4.66 6 5 C5.67 6.65 5.34 8.3 5 10 C2 9 2 9 0.8125 7.25 C-0.10819096 4.70039426 -0.14948718 2.69076919 0 0 Z " fill="#206F79" transform="translate(54,252)"/>
<path d="M0 0 C7.26153846 -0.49230769 7.26153846 -0.49230769 11 2 C11.66 2.66 12.32 3.32 13 4 C12.67 4.66 12.34 5.32 12 6 C11.48050781 5.71125 10.96101563 5.4225 10.42578125 5.125 C5.03834532 2.23267168 5.03834532 2.23267168 -1 2 C-0.67 1.34 -0.34 0.68 0 0 Z " fill="#90B1BE" transform="translate(384,233)"/>
<path d="M0 0 C2.475 0.495 2.475 0.495 5 1 C4.67 2.32 4.34 3.64 4 5 C4.66 5 5.32 5 6 5 C6.33 6.65 6.66 8.3 7 10 C6.01 9.67 5.02 9.34 4 9 C2.375 5.5625 2.375 5.5625 1 2 C0.67 1.34 0.34 0.68 0 0 Z " fill="#114352" transform="translate(34,226)"/>
<path d="M0 0 C0.66 0.33 1.32 0.66 2 1 C2 1.66 2 2.32 2 3 C0.02 3.33 -1.96 3.66 -4 4 C-4 4.66 -4 5.32 -4 6 C-5.65 6.33 -7.3 6.66 -9 7 C-9 6.34 -9 5.68 -9 5 C-6.03812728 2.82796 -3.49314009 1.16438003 0 0 Z " fill="#031532" transform="translate(425,224)"/>
<path d="M0 0 C0.33 0 0.66 0 1 0 C1.05382106 2.62527189 1.09358313 5.24944713 1.125 7.875 C1.14175781 8.62136719 1.15851563 9.36773437 1.17578125 10.13671875 C1.1933959 12.09194461 1.10320189 14.04742021 1 16 C0.34 16.66 -0.32 17.32 -1 18 C-2.13673517 13.77897638 -1.79839993 10.47303491 -1.0625 6.1875 C-0.86785156 5.02605469 -0.67320313 3.86460937 -0.47265625 2.66796875 C-0.31667969 1.78753906 -0.16070312 0.90710938 0 0 Z " fill="#223F44" transform="translate(125,246)"/>
<path d="M0 0 C0 2.31 0 4.62 0 7 C-0.99 7.33 -1.98 7.66 -3 8 C-3 6 -3 4 -3 2 C-4.98 2 -6.96 2 -9 2 C-5.86501708 0.14223235 -3.62528568 -0.20140476 0 0 Z " fill="#062B3E" transform="translate(392,225)"/>
<path d="M0 0 C3.86107457 2.57404971 3.94319692 4.61020259 5 9 C3.85073734 8.04578192 2.70569459 7.08647955 1.5625 6.125 C0.92441406 5.59132813 0.28632812 5.05765625 -0.37109375 4.5078125 C-2 3 -2 3 -3 1 C-2.01 0.67 -1.02 0.34 0 0 Z " fill="#2F9A9D" transform="translate(105,272)"/>
<path d="M0 0 C2.96175123 0.61277612 4.38058783 1.25372522 7 3 C8.61785127 5.63965207 9 6.84012675 9 10 C7.49702124 8.52386015 5.99768715 7.04400843 4.5 5.5625 C3.6646875 4.73878906 2.829375 3.91507812 1.96875 3.06640625 C0 1 0 1 0 0 Z " fill="#1D6D74" transform="translate(84,254)"/>
<path d="M0 0 C3.35337589 0.99694959 4.72713571 1.58565053 6.6875 4.5625 C7.120625 5.366875 7.55375 6.17125 8 7 C8.66 7.33 9.32 7.66 10 8 C9.67 8.99 9.34 9.98 9 11 C7.68141572 9.73548068 6.37032369 8.46314525 5.0625 7.1875 C4.33160156 6.47980469 3.60070312 5.77210938 2.84765625 5.04296875 C1 3 1 3 0 0 Z " fill="#19424C" transform="translate(305,250)"/>
<path d="M0 0 C0 0.66 0 1.32 0 2 C0.66 2.33 1.32 2.66 2 3 C-0.64 3.99 -3.28 4.98 -6 6 C-6.33 5.01 -6.66 4.02 -7 3 C-2.25 0 -2.25 0 0 0 Z " fill="#061D39" transform="translate(428,230)"/>
<path d="M0 0 C0.99 0 1.98 0 3 0 C3.66 1.65 4.32 3.3 5 5 C5.66 5 6.32 5 7 5 C7.33 5.99 7.66 6.98 8 8 C5.125 7.375 5.125 7.375 2 6 C0.625 2.875 0.625 2.875 0 0 Z " fill="#228289" transform="translate(46,262)"/>
<path d="M0 0 C0.33 1.32 0.66 2.64 1 4 C-3.43076923 7.07692308 -3.43076923 7.07692308 -6.3125 6.6875 C-6.869375 6.460625 -7.42625 6.23375 -8 6 C-7.34 5.34 -6.68 4.68 -6 4 C-5.01 4 -4.02 4 -3 4 C-3 3.34 -3 2.68 -3 2 C-2.01 2 -1.02 2 0 2 C0 1.34 0 0.68 0 0 Z " fill="#19464F" transform="translate(281,257)"/>
<path d="M0 0 C0.99 0.33 1.98 0.66 3 1 C1.71034824 2.37562854 0.37310707 3.70766393 -1 5 C-1.66 5 -2.32 5 -3 5 C-3 5.66 -3 6.32 -3 7 C-3.99 6.67 -4.98 6.34 -6 6 C-2.25 1.125 -2.25 1.125 0 0 Z " fill="#133949" transform="translate(308,230)"/>
<path d="M0 0 C2.31 0 4.62 0 7 0 C7.33 0.66 7.66 1.32 8 2 C8.99 2.66 9.98 3.32 11 4 C3.49230769 3.38461538 3.49230769 3.38461538 1 1.4375 C0.67 0.963125 0.34 0.48875 0 0 Z " fill="#358D93" transform="translate(65,269)"/>
<path d="M0 0 C1.60379341 -0.05416188 3.20811406 -0.09286638 4.8125 -0.125 C5.70582031 -0.14820313 6.59914063 -0.17140625 7.51953125 -0.1953125 C10 0 10 0 13 2 C13 2.66 13 3.32 13 4 C11.68 4 10.36 4 9 4 C9 3.01 9 2.02 9 1 C6.03 1 3.06 1 0 1 C0 0.67 0 0.34 0 0 Z " fill="#4B6D81" transform="translate(383,224)"/>
<path d="M0 0 C2.97 0.99 5.94 1.98 9 3 C9 3.33 9 3.66 9 4 C4.83861737 4.08159574 1.0527516 3.98248524 -3 3 C-2.01 2.67 -1.02 2.34 0 2 C0 1.34 0 0.68 0 0 Z " fill="#3B919A" transform="translate(421,251)"/>
<path d="M0 0 C2.31 0.33 4.62 0.66 7 1 C6.67 1.99 6.34 2.98 6 4 C5.38125 3.814375 4.7625 3.62875 4.125 3.4375 C1.95839822 2.76313824 1.95839822 2.76313824 0 4 C0 2.68 0 1.36 0 0 Z " fill="#17A8A7" transform="translate(54,276)"/>
<path d="M0 0 C0.33 1.32 0.66 2.64 1 4 C-0.65 4.66 -2.3 5.32 -4 6 C-4.33 5.01 -4.66 4.02 -5 3 C-3.35 2.01 -1.7 1.02 0 0 Z " fill="#04132C" transform="translate(399,258)"/>
<path d="M0 0 C0.99 0.99 1.98 1.98 3 3 C0.09399739 4.25664978 -1.79604584 5 -5 5 C-5 4.34 -5 3.68 -5 3 C-2.5 1.375 -2.5 1.375 0 0 Z " fill="#051E3B" transform="translate(439,252)"/>
<path d="M0 0 C1.32 0 2.64 0 4 0 C3.67 1.65 3.34 3.3 3 5 C2.34 5 1.68 5 1 5 C0.67 6.32 0.34 7.64 0 9 C0 6.03 0 3.06 0 0 Z " fill="#245B65" transform="translate(32,248)"/>
<path d="M0 0 C3.82524236 1.450954 5.19090966 3.38181932 7 7 C7 7.66 7 8.32 7 9 C5.68 8.67 4.36 8.34 3 8 C2.814375 6.8553125 2.814375 6.8553125 2.625 5.6875 C2.11897208 2.79732864 2.11897208 2.79732864 0 0 Z " fill="#072638" transform="translate(398,228)"/>
<path d="M0 0 C2.97 0 5.94 0 9 0 C9 0.33 9 0.66 9 1 C7.2984375 1.433125 7.2984375 1.433125 5.5625 1.875 C4.386875 2.24625 3.21125 2.6175 2 3 C1.67 3.66 1.34 4.32 1 5 C0.34 5 -0.32 5 -1 5 C-0.67 3.35 -0.34 1.7 0 0 Z " fill="#183E49" transform="translate(335,224)"/>
<path d="M0 0 C0.93423645 3.01031744 1.04449911 3.86650268 0 7 C-0.66 7 -1.32 7 -2 7 C-2.66 5.02 -3.32 3.04 -4 1 C-2 0 -2 0 0 0 Z " fill="#1DA6A7" transform="translate(112,274)"/>
<path d="M0 0 C2.93200474 2.85276137 5.64315404 5.65079784 8 9 C5.6875 8.8125 5.6875 8.8125 3 8 C0.79029126 5.10451959 0 3.66842255 0 0 Z " fill="#1F414A" transform="translate(90,228)"/>
<path d="M0 0 C4 4.75 4 4.75 4 7 C3.01 7.33 2.02 7.66 1 8 C0.01 6.02 -0.98 4.04 -2 2 C-1.34 2 -0.68 2 0 2 C0 1.34 0 0.68 0 0 Z " fill="#124D5B" transform="translate(89,228)"/>
<path d="M0 0 C0.99 0 1.98 0 3 0 C3.33 2.31 3.66 4.62 4 7 C3.01 7 2.02 7 1 7 C0.67 4.69 0.34 2.38 0 0 Z " fill="#1CAEAC" transform="translate(37,282)"/>
<path d="M0 0 C2.125 0.9375 2.125 0.9375 4 2 C3.34 2.66 2.68 3.32 2 4 C-0.72869407 3.96712417 -3.2966618 3.43602229 -6 3 C-4 2 -2 1 0 0 Z " fill="#45A3A5" transform="translate(92,281)"/>
<path d="M0 0 C4.455 0.99 4.455 0.99 9 2 C6 3 6 3 2 3 C1.67 3.66 1.34 4.32 1 5 C0.67 3.35 0.34 1.7 0 0 Z " fill="#164A5B" transform="translate(379,254)"/>
<path d="M0 0 C0.66 0 1.32 0 2 0 C3.7143618 1.95927063 5.38405168 3.95880212 7 6 C4.0625 5.25 4.0625 5.25 1 4 C0.125 1.875 0.125 1.875 0 0 Z " fill="#153A47" transform="translate(376,249)"/>
<path d="M0 0 C0.33 0.66 0.66 1.32 1 2 C3.02463255 2.65213292 3.02463255 2.65213292 5 3 C4.01 3.33 3.02 3.66 2 4 C2 4.66 2 5.32 2 6 C1.01 5.67 0.02 5.34 -1 5 C-0.67 3.35 -0.34 1.7 0 0 Z " fill="#103E48" transform="translate(310,236)"/>
<path d="M0 0 C1.32 0.33 2.64 0.66 4 1 C4 1.66 4 2.32 4 3 C6.475 3.99 6.475 3.99 9 5 C8.01 5.495 8.01 5.495 7 6 C4.5249829 4.88568235 2.32116581 3.41849022 0 2 C0 1.34 0 0.68 0 0 Z " fill="#21596E" transform="translate(428,230)"/>
<path d="" fill="#000000" transform="translate(0,0)"/>
<path d="" fill="#84C5CE" transform="translate(0,0)"/>
</svg>
