<svg xmlns="http://www.w3.org/2000/svg" xlink="http://www.w3.org/1999/xlink" viewBox="0 0 24 24" id="svg9201292410"><path d="M 12 2.25 C 6.615 2.25 2.25 6.615 2.25 12 C 2.25 17.385 6.615 21.75 12 21.75 C 17.385 21.75 21.75 17.385 21.75 12 C 21.74 6.62 17.38 2.26 12 2.25 Z M 16.641 10.294 L 11.147 15.544 C 11.005 15.677 10.817 15.751 10.622 15.75 C 10.429 15.753 10.244 15.679 10.106 15.544 L 7.359 12.919 C 7.152 12.738 7.06 12.458 7.121 12.189 C 7.181 11.92 7.384 11.706 7.649 11.632 C 7.914 11.557 8.199 11.634 8.391 11.831 L 10.622 13.959 L 15.609 9.206 C 15.912 8.942 16.37 8.964 16.647 9.255 C 16.923 9.547 16.921 10.005 16.641 10.294 Z" fill="var(--token-958896e2-4814-4b9c-a8c2-929928b49b3e, rgb(120, 120, 120)) /* {&quot;name&quot;:&quot;Light Gray&quot;} */"/></svg>